<svg xmlns="http://www.w3.org/2000/svg" xmlns:xlink="http://www.w3.org/1999/xlink" width="1919" height="321" viewBox="0 0 1919 321">
    <defs>
        <path id="a" d="M0 0h1920v418H0z"/>
        <path id="c" d="M0 50L1920 0v467.422H0z"/>
    </defs>
    <g fill="none" fill-rule="evenodd" transform="translate(-1 -97)">
        <mask id="b" fill="#fff">
            <use xlink:href="#a"/>
        </mask>
        <g mask="url(#b)" opacity=".1">
            <g transform="translate(1 97)">
                <mask id="d" fill="#fff">
                    <use xlink:href="#c"/>
                </mask>
                <use fill="#FFF" xlink:href="#c"/>
                <g mask="url(#d)">
                    <path fill="#F15A23" d="M1227.369 508.643a1.856 1.856 0 0 1-.021-2.626l187.421-180.95 136.26 4.025 223.217-223.948a1.856 1.856 0 1 1 2.63 2.622l-224.35 225.087-136.247-4.024-186.285 179.792c-1.662.6-2.215.427-2.625.022z"/>
                    <path fill="#F15A23" d="M1779.247 113.19l3.812-14.316-14.304 3.857z"/>
                    <path fill="#F83C3D" d="M1538.864 597.338l-3.181-3.12 448.514-457.293 3.182 3.12zM1108.114 534.855a2.226 2.226 0 0 1-1.746-3.814l200.227-195.55 35.208 6.483 117.784-112.748a2.23 2.23 0 0 1 3.151.068c.85.89.82 2.301-.07 3.152l-119.43 114.325-35.18-6.478-198.576 193.935c-.385.377-.87.585-1.368.627"/>
                    <path fill="#F83C3D" d="M1464.303 236.973l3.73-12.8-12.95 3.17z"/>
                    <path fill="#929292" d="M1792.525 204.8l-12.883-12.64 12.76-.121z"/>
                    <path fill="#929292" d="M1476.365 516.247l-2.12-2.081 311.608-317.607 2.12 2.08z"/>
                    <path fill="#F15A23" d="M-145.631 508.643a1.856 1.856 0 0 1-.021-2.626l187.421-180.95 136.26 4.025 223.217-223.948a1.856 1.856 0 1 1 2.63 2.622l-224.35 225.087-136.247-4.024-186.285 179.792c-1.662.6-2.215.427-2.625.022z"/>
                    <path fill="#F15A23" d="M406.247 113.19l3.812-14.316-14.304 3.857zM140.182 663.413l-3.182-3.12L585.515 203l3.181 3.12z"/>
                    <path fill="#F15A23" d="M594.109 213.951L578 198.152l10.732-.102 5.219-.05z"/>
                    <path fill="#F83C3D" d="M-264.886 534.855a2.226 2.226 0 0 1-1.746-3.814l200.227-195.55 35.208 6.483L86.587 229.226a2.23 2.23 0 0 1 3.151.068c.85.89.82 2.301-.07 3.152L-29.761 346.77l-35.18-6.478-198.576 193.935c-.385.377-.87.585-1.368.627"/>
                    <path fill="#F83C3D" d="M91.303 236.973l3.73-12.8-12.95 3.17z"/>
                    <path fill="#929292" d="M419.525 204.8l-12.883-12.64 12.76-.121z"/>
                    <path fill="#929292" d="M103.365 516.247l-2.12-2.081 311.608-317.607 2.12 2.08z"/>
                    <path fill="#929292" d="M407.541 192.522l11.604 11.385-.112-11.493z"/>
                </g>
            </g>
        </g>
    </g>
</svg>
