<svg xmlns="http://www.w3.org/2000/svg" xmlns:xlink="http://www.w3.org/1999/xlink" width="239" height="197" viewBox="0 0 239 197">
    <defs>
        <linearGradient id="a" x1="96.336%" x2="0%" y1="19.324%" y2="50%">
            <stop offset="0%" stop-color="#F3A58A" stop-opacity=".986"/>
            <stop offset="100%" stop-color="#F79796"/>
        </linearGradient>
        <linearGradient id="b" x1="27.722%" x2="101.073%" y1="49.4%" y2="49.4%">
            <stop offset="0%" stop-color="#FCD7D2" stop-opacity="0"/>
            <stop offset="100%" stop-color="#FF8E8E"/>
        </linearGradient>
        <linearGradient id="c" x1="125.677%" x2="25.645%" y1="45.923%" y2="45.923%">
            <stop offset="0%" stop-color="#F3A58A" stop-opacity=".986"/>
            <stop offset="100%" stop-color="#F79796" stop-opacity="0"/>
        </linearGradient>
        <linearGradient id="d" x1="95.201%" x2="3.6%" y1="45.923%" y2="45.923%">
            <stop offset="0%" stop-color="#F3A58A" stop-opacity=".986"/>
            <stop offset="100%" stop-color="#F79796"/>
        </linearGradient>
        <linearGradient id="f" x1="149.701%" x2="36.206%" y1="49.4%" y2="49.4%">
            <stop offset="0%" stop-color="#FFF" stop-opacity=".6"/>
            <stop offset="100%" stop-color="#FFF" stop-opacity="0"/>
        </linearGradient>
        <rect id="e" width="58.225" height="17.703" x="92.583" y="15.141" rx="8.852"/>
        <rect id="g" width="58.225" height="17.703" x="92.583" y="15.141" rx="8.852"/>
        <linearGradient id="h" x1="49.4%" x2="49.4%" y1="91.724%" y2=".123%">
            <stop offset="0%" stop-color="#F3A58A" stop-opacity=".986"/>
            <stop offset="100%" stop-color="#F79796"/>
        </linearGradient>
        <linearGradient id="j" x1="57.096%" x2="57.096%" y1="2.866%" y2="48.245%">
            <stop offset="0%" stop-color="#FFF" stop-opacity=".3"/>
            <stop offset="100%" stop-color="#FFF" stop-opacity=".199"/>
        </linearGradient>
        <circle id="i" cx="35.407" cy="35.407" r="35.407"/>
        <linearGradient id="k" x1="49.4%" x2="49.4%" y1=".123%" y2="91.724%">
            <stop offset="0%" stop-color="#F3A58A" stop-opacity=".986"/>
            <stop offset="100%" stop-color="#F79796"/>
        </linearGradient>
        <linearGradient id="l" x1="50.755%" x2="99.126%" y1="50%" y2="50%">
            <stop offset="0%" stop-color="#FCD7D2" stop-opacity=".286"/>
            <stop offset="100%" stop-color="#FFF" stop-opacity=".433"/>
        </linearGradient>
        <linearGradient id="m" x1="57.096%" x2="57.096%" y1="2.866%" y2="95.934%">
            <stop offset="0%" stop-color="#FFF" stop-opacity=".6"/>
            <stop offset="100%" stop-color="#FFF" stop-opacity=".199"/>
        </linearGradient>
        <linearGradient id="n" x1="55.953%" y1="0%" y2="100%">
            <stop offset="0%" stop-color="#F15A23"/>
            <stop offset="100%" stop-color="#F83C3D"/>
        </linearGradient>
    </defs>
    <g fill="none" fill-rule="evenodd">
        <path fill="url(#a)" d="M195.622 22.13l-38.64 23.182a30 30 0 0 1-12.151 4.096c-27.794 3.06-43.91 4.588-48.348 4.587-4.775-.001-11.267-1.778-19.474-5.33V4.425h21.724a30 30 0 0 1 15.534 4.336l21.353 12.924a15 15 0 0 0 10.97 1.822l45.869-10.023a4.62 4.62 0 0 1 3.812 1.029 4.667 4.667 0 0 1 1.67 3.58 4.688 4.688 0 0 1-2.32 4.036z" transform="translate(-19 142.512)"/>
        <path fill="url(#b)" d="M0 0h67.273v53.995H0z" transform="translate(-19 142.512)"/>
        <path fill="url(#c)" d="M67.273 0h10.035v53.995H67.273z" transform="translate(-19 142.512)"/>
        <g transform="rotate(30 -153.735 59.794)">
            <use fill="url(#d)" xlink:href="#e"/>
            <use fill="url(#f)" xlink:href="#e"/>
        </g>
        <path fill="url(#a)" d="M195.622 22.13l-38.64 23.182a30 30 0 0 1-12.151 4.096c-27.794 3.06-43.91 4.588-48.348 4.587-4.775-.001-11.267-1.778-19.474-5.33V4.425h21.724a30 30 0 0 1 15.534 4.336l21.353 12.924a15 15 0 0 0 10.97 1.822l45.869-10.023a4.62 4.62 0 0 1 3.812 1.029 4.667 4.667 0 0 1 1.67 3.58 4.688 4.688 0 0 1-2.32 4.036z" transform="rotate(180 129.028 26.998)"/>
        <path fill="url(#b)" d="M0 0h67.273v53.995H0z" transform="rotate(180 129.028 26.998)"/>
        <path fill="url(#c)" d="M67.273 0h10.035v53.995H67.273z" transform="rotate(180 129.028 26.998)"/>
        <g transform="rotate(-150 129.834 25.033)">
            <use fill="url(#d)" xlink:href="#g"/>
            <use fill="url(#f)" xlink:href="#g"/>
        </g>
        <g transform="translate(88.105 63.732)">
            <use fill="url(#h)" xlink:href="#i"/>
            <use fill="url(#j)" xlink:href="#i"/>
            <circle cx="35.849" cy="35.849" r="33.194" fill="url(#k)"/>
            <circle cx="35.849" cy="35.849" r="28.768" stroke="url(#l)"/>
            <path fill="url(#m)" fill-rule="nonzero" d="M35.719 32.09a3.056 3.056 0 0 1 0-6.108 3.056 3.056 0 0 1 3.054 3.054h6.11c0-3.977-2.564-7.337-6.11-8.601v-3.617h-6.109v3.617c-3.546 1.264-6.109 4.624-6.109 8.601 0 5.052 4.111 9.164 9.164 9.164a3.056 3.056 0 0 1 0 6.109 3.056 3.056 0 0 1-3.055-3.055h-6.109c0 3.977 2.563 7.337 6.11 8.602v3.617h6.108v-3.617c3.546-1.265 6.11-4.625 6.11-8.602 0-5.052-4.112-9.163-9.164-9.163z"/>
        </g>
        <g fill="url(#n)" fill-rule="nonzero" transform="translate(73.942 99.139)">
            <path d="M8.105 23.9l1.137 2.303 2.542.37-1.84 1.792.435 2.532-2.274-1.195-2.274 1.195.434-2.532-1.84-1.792 2.543-.37zM3.23 10.622l.998 2.022 2.232.325-1.615 1.574.38 2.222-1.995-1.049-1.996 1.05.38-2.223L0 12.969l2.232-.325zM5.72 0l.673 1.365 1.506.218-1.09 1.063.258 1.5-1.347-.709-1.347.708.257-1.5-1.09-1.062 1.507-.218z"/>
        </g>
        <g fill="url(#n)" fill-rule="nonzero" transform="rotate(180 86.54 48.684)">
            <path d="M8.492 23.9l1.136 2.303 2.543.37-1.84 1.792.434 2.532-2.273-1.195-2.274 1.195.434-2.532-1.84-1.792 2.543-.37zM3.617 10.622l.998 2.022 2.231.325-1.615 1.574.382 2.222-1.996-1.049-1.996 1.05.38-2.223-1.614-1.574 2.232-.325zM6.107 0l.673 1.365 1.506.218-1.09 1.063.258 1.5-1.347-.709-1.347.708.257-1.5-1.09-1.062 1.506-.218z"/>
        </g>
    </g>
</svg>
