<svg xmlns="http://www.w3.org/2000/svg" xmlns:xlink="http://www.w3.org/1999/xlink" width="1920" height="850" viewBox="0 0 1920 850">
    <defs>
        <path id="a" d="M0 0h1920v800L0 850z"/>
        <path id="c" d="M229.636 448.666H0V.625h459.272v448.041H229.636z"/>
        <path id="e" d="M229.636 448.666H0V.625h459.272v448.041H229.636z"/>
        <path id="g" d="M229.636 448.666H0V.625h459.272v448.041H229.636z"/>
    </defs>
    <g fill="none" fill-rule="evenodd">
        <mask id="b" fill="#fff">
            <use xlink:href="#a"/>
        </mask>
        <use fill="#FFF" xlink:href="#a"/>
        <g mask="url(#b)">
            <g opacity=".05">
                <path fill="#58595B" d="M426.865 821.165a1.856 1.856 0 0 1-1.517-3.148l187.421-180.95.81.025 135.45 4 223.217-223.948a1.856 1.856 0 1 1 2.63 2.622l-224.35 225.087-.802-.025-135.445-4-186.285 179.793a1.848 1.848 0 0 1-1.13.544"/>
                <path fill="#58595B" d="M977.247 425.19l3.812-14.316-14.304 3.857zM736.864 909.338l-3.181-3.12 448.514-457.293 3.182 3.12z"/>
                <path fill="#58595B" d="M1190.803 459.485l-16.108-15.8 15.95-.152z"/>
                <path fill="#58595B" d="M1175.596 444.049l14.827 14.543-.145-14.683-14.682.14zm15.587 16.328l-17.388-17.054 17.219-.164.17 17.218zM306.114 846.855a2.226 2.226 0 0 1-1.746-3.814l200.227-195.55 35.208 6.483 117.784-112.748a2.23 2.23 0 0 1 3.151.068c.85.89.82 2.301-.07 3.152L541.239 658.77l-35.18-6.478-198.576 193.935c-.385.377-.87.585-1.368.627"/>
                <path fill="#58595B" d="M662.303 548.973l3.73-12.8-12.95 3.17z"/>
                <path fill="#C8CACC" d="M530.255 769.138l-4.646-4.806 337.004-325.73 4.645 4.808z"/>
                <path fill="#C8CACC" d="M874.093 453.31l-21.169-21.712 21.436.274z"/>
                <g transform="translate(45 698.217)">
                    <mask id="d" fill="#fff">
                        <use xlink:href="#c"/>
                    </mask>
                    <path fill="#58595B" d="M5.185 448.666L0 443.348 454.086.625l5.186 5.318z" mask="url(#d)"/>
                </g>
                <path fill="#58595B" d="M507.402 709.19l-13.23-13.57 13.398.172z"/>
                <path fill="#58595B" d="M495.064 696.003l11.978 12.285.15-12.13-12.128-.155zm12.698 14.089l-14.482-14.854 14.666.188-.184 14.666zM295.099 1093.78l-2.125-2.077 315.44-322.74 2.124 2.076z"/>
                <path fill="#58595B" d="M615.102 777.19l-12.908-12.615 12.76-.146z"/>
                <path fill="#C8CACC" d="M990.525 516.8l-12.883-12.64 12.76-.121z"/>
                <path fill="#C8CACC" d="M674.365 828.247l-2.12-2.081 311.608-317.607 2.12 2.08z"/>
                <path fill="#C8CACC" d="M978.541 504.522l11.604 11.385-.112-11.493-11.492.108zm12.365 13.171l-14.165-13.897 14.028-.132.137 14.03zM537.79 1051.215l-3.187-3.115 315.44-322.741 3.187 3.115z"/>
                <path fill="#C8CACC" d="M857.263 734.107l-12.91-12.616 12.761-.145z"/>
            </g>
            <g opacity=".2">
                <path fill="#58595B" d="M-47.631 748.643a1.856 1.856 0 0 1-.021-2.626l187.421-180.95 136.26 4.025 223.217-223.948a1.856 1.856 0 1 1 2.63 2.622l-224.35 225.087-136.247-4.024L-45.006 748.62c-1.662.6-2.215.427-2.625.022z"/>
                <path fill="#58595B" d="M504.247 353.19l3.812-14.316-14.304 3.857z"/>
                <path fill="#58595B" d="M-166.886 774.855a2.226 2.226 0 0 1-1.746-3.814L31.595 575.49l35.208 6.483 117.784-112.748a2.23 2.23 0 0 1 3.151.068c.85.89.82 2.301-.07 3.152L68.239 586.77l-35.18-6.478-198.576 193.935c-.385.377-.87.585-1.368.627" opacity=".3"/>
                <path fill="#58595B" d="M189.303 476.973l3.73-12.8-12.95 3.17z" opacity=".3"/>
                <path fill="#C8CACC" d="M342 416l-9-2 56.613-47.397 4.645 4.807z"/>
                <path fill="#C8CACC" d="M401.093 381.31l-21.169-21.712 21.436.274z"/>
                <g transform="translate(-428 626.217)">
                    <mask id="f" fill="#fff">
                        <use xlink:href="#e"/>
                    </mask>
                    <path fill="#58595B" d="M5.185 448.666L0 443.348 454.086.625l5.186 5.318z" mask="url(#f)"/>
                </g>
                <path fill="#58595B" d="M34.402 637.19l-13.23-13.57 13.398.172z"/>
                <path fill="#58595B" d="M22.064 624.003l11.978 12.285.15-12.13-12.128-.155zm12.698 14.089L20.28 623.238l14.666.188-.184 14.666zM-177.901 1021.78l-2.125-2.077 315.44-322.74 2.124 2.076z"/>
                <path fill="#58595B" d="M142.102 705.19l-12.908-12.615 12.76-.146z"/>
                <path fill="#C8CACC" d="M517.525 444.8l-12.883-12.64 12.76-.121z"/>
                <path fill="#C8CACC" d="M201.365 756.247l-2.12-2.081 311.608-317.607 2.12 2.08z"/>
                <path fill="#C8CACC" d="M505.541 432.522l11.604 11.385-.112-11.493-11.492.108zm12.365 13.171l-14.165-13.897 14.028-.132.137 14.03zM64.79 979.215l-3.187-3.115 315.44-322.741 3.187 3.115z"/>
                <path fill="#C8CACC" d="M384.263 662.107l-12.91-12.616 12.761-.145z"/>
            </g>
            <g opacity=".2">
                <path fill="#58595B" d="M1098.369 776.643a1.856 1.856 0 0 1-.021-2.626l187.421-180.95 136.26 4.025 223.217-223.948a1.856 1.856 0 1 1 2.63 2.622l-224.35 225.087-136.247-4.024-186.285 179.792c-1.662.6-2.215.427-2.625.022z" opacity=".66"/>
                <path fill="#58595B" d="M1650.247 381.19l3.812-14.316-14.304 3.857z" opacity=".66"/>
                <path fill="#58595B" d="M1409.864 865.338l-3.181-3.12 448.514-457.293 3.182 3.12z"/>
                <path fill="#58595B" d="M1863.803 415.485l-16.108-15.8 15.95-.152z"/>
                <path fill="#58595B" d="M1848.596 400.049l14.827 14.543-.145-14.683-14.682.14zm15.587 16.328l-17.388-17.054 17.219-.164.17 17.218z"/>
                <path fill="#58595B" d="M979.114 802.855a2.226 2.226 0 0 1-1.746-3.814l200.227-195.55 35.208 6.483 117.784-112.748a2.23 2.23 0 0 1 3.151.068c.85.89.82 2.301-.07 3.152l-119.43 114.325-35.18-6.478-198.576 193.935c-.385.377-.87.585-1.368.627" opacity=".4"/>
                <path fill="#58595B" d="M1335.303 504.973l3.73-12.8-12.95 3.17z" opacity=".4"/>
                <g transform="translate(718 654.217)">
                    <mask id="h" fill="#fff">
                        <use xlink:href="#g"/>
                    </mask>
                    <path fill="#58595B" d="M5.185 448.666L0 443.348 454.086.625l5.186 5.318z" mask="url(#h)"/>
                </g>
                <path fill="#58595B" d="M1180.402 665.19l-13.23-13.57 13.398.172z"/>
                <path fill="#58595B" d="M1168.064 652.003l11.978 12.285.15-12.13-12.128-.155zm12.698 14.089l-14.482-14.854 14.666.188-.184 14.666zM968.099 1049.78l-2.125-2.077 315.44-322.74 2.124 2.076z"/>
                <path fill="#58595B" d="M1288.102 733.19l-12.908-12.615 12.76-.146z"/>
                <path fill="#C8CACC" d="M1663.525 472.8l-12.883-12.64 12.76-.121z"/>
                <path fill="#C8CACC" d="M1347.365 784.247l-2.12-2.081 311.608-317.607 2.12 2.08z"/>
                <path fill="#C8CACC" d="M1651.541 460.522l11.604 11.385-.112-11.493-11.492.108zm12.365 13.171l-14.165-13.897 14.028-.132.137 14.03zM1210.79 1007.215l-3.187-3.115 315.44-322.741 3.187 3.115z"/>
                <path fill="#C8CACC" d="M1530.263 690.107l-12.91-12.616 12.761-.145z"/>
            </g>
            <path fill="#F15A23" d="M1766.367 723.186l-12.12-10-12.124 10-13.395-11.05a2.001 2.001 0 0 1 2.545-3.086l10.85 8.95 12.123-10 12.121 10 12.121-10 12.127 10 12.123-9.999 12.131 10 10.86-8.951a2 2 0 1 1 2.544 3.086l-13.404 11.049-12.13-10-12.124 10.001-12.127-10-12.12 10z" opacity=".23"/>
            <path fill="#000" d="M1687.22 760.19h3.78V756h-3.78v4.19zm-15.122 0h3.78V756h-3.78v4.19zm-15.123 0h3.781V756h-3.781v4.19zm-15.121 0h3.781V756h-3.781v4.19zm-15.122 0h3.781V756h-3.781v4.19zm-15.122 0h3.78V756h-3.78v4.19zm-15.122 0h3.78V756h-3.78v4.19zm-15.122 0h3.78V756h-3.78v4.19zm-15.122 0h3.781V756h-3.781v4.19zm-15.122 0h3.781V756h-3.781v4.19zm-15.122 0h3.781V756H1536v4.19zM817.22 710.19H821V706h-3.78v4.19zm-15.122 0h3.78V706h-3.78v4.19zm-15.123 0h3.781V706h-3.781v4.19zm-15.121 0h3.781V706h-3.781v4.19zm-15.122 0h3.781V706h-3.781v4.19zm-15.122 0h3.78V706h-3.78v4.19zm-15.122 0h3.78V706h-3.78v4.19zm-15.122 0h3.78V706h-3.78v4.19zm-15.122 0h3.781V706h-3.781v4.19zm-15.122 0h3.781V706h-3.781v4.19zm-15.122 0h3.781V706H666v4.19z" opacity=".2"/>
            <g>
                <path fill="#58595B" d="M529.82 502.028l3.706 1.462v4.228l8.049-.284v-6.72l.624-.397c.602-.39 1.435-1.225 1.42-1.77l-.621-9.44c-.471-.196-1.486-.42-2.346-.42-.124 0-.198.007-.232.01l-13.946 3.87a.301.301 0 0 0-.24.326l2.274 8.436c.103.167.798.472 1.133.62l.18.079zm1.024 8.483v-5.182l-2.28-.91c-.937-.413-2.35-1.034-2.674-2.506l-2.28-8.458a3 3 0 0 1 2.277-3.52l13.977-3.877c.22-.045.478-.066.788-.066.045 0 4.515.026 4.967 2.275l.024.178.655 9.976c.049 1.718-1.229 3.047-2.04 3.715v7.901l-13.414.474zM481.005 663.784h-54.172l-1.09-85.631 2.683-.035 1.055 82.97h48.846l.132-86.819 2.683.004zM427.826 558.633h51.509v-2.696h-51.509z"/>
                <path fill="#58595B" d="M473.696 576.303c.337-.29.688-.596 1.062-.922 1.036-.905 2.212-1.797 3.79-3.096l.37-.17h.48c2.825 0 28.078-.552 44.813-14.967 17.115-14.743 17.855-36.586 17.887-47.045h-11.806c-.08 12.721-1.45 26.896-13.357 37.152-14.788 12.738-40.606 11.393-40.857 11.375l.202-2.689-.102 1.345.09-1.345c.246.017 25.094 1.183 38.927-10.734 11.464-9.874 12.43-23.993 12.43-36.452v-1.348h17.169v1.348c0 10.2-.006 34.089-18.831 50.305-16.739 14.42-41.47 15.42-46.078 15.478a162.697 162.697 0 0 0-3.366 2.878l-1.077.935-1.746-2.048zM424.07 675.647h-17.106l-.09-96.52.18-4.904c.553-8.054 8.958-19.125 22.714-18.192l-.181 2.69c-13.045-.883-19.462 9.93-19.855 15.645l-.176 4.809.09 93.776h11.741v-88.434c.001-.147.043-3.46 2.253-5.635 1.261-1.242 2.94-1.845 4.954-1.824l-.04 2.696c-1.3-.014-2.286.321-3.025 1.043-1.41 1.376-1.459 3.709-1.459 3.733v91.117z"/>
                <path fill="#FFF" d="M454.985 566.722h-7.512l-1.073-8.628h9.658z"/>
                <path fill="#F15A23" d="M448.657 565.104h5.144l.737-5.931h-6.619l.738 5.931zm7.512 2.696h-9.88l-1.409-11.323h12.697L456.17 567.8z"/>
                <path fill="#FFF" d="M472.457 529.75l-2.793-23.781c-.767-6.532-6.657-11.203-13.157-10.431l-12.616 1.496c-6.499.771-11.147 6.69-10.379 13.224l2.792 23.78a11.886 11.886 0 0 0 3.827 7.438l1.228 16.274 10.04 1.253 8.084-2.56-1.353-13.003 3.947-.468c6.5-.77 11.147-6.69 10.38-13.223"/>
                <path fill="#58595B" d="M442.614 556.548l8.661 1.08 6.76-2.14-1.377-13.23 5.262-.625a10.426 10.426 0 0 0 7.019-3.947 10.528 10.528 0 0 0 2.186-7.779l-2.792-23.78c-.625-5.316-5.105-9.325-10.422-9.325-.413 0-.833.025-1.247.074l-12.616 1.497a10.427 10.427 0 0 0-7.018 3.947 10.527 10.527 0 0 0-2.186 7.78l2.793 23.78a10.57 10.57 0 0 0 3.393 6.596l.398.361 1.186 15.711zm8.91 3.829l-11.42-1.426-1.271-16.852a13.274 13.274 0 0 1-3.86-7.904l-2.793-23.78a13.216 13.216 0 0 1 2.743-9.765 13.09 13.09 0 0 1 8.811-4.955l12.616-1.497c.518-.06 1.043-.092 1.561-.092 6.677 0 12.302 5.032 13.085 11.705l2.793 23.78a13.214 13.214 0 0 1-2.744 9.765 13.09 13.09 0 0 1-8.81 4.955l-2.633.312 1.33 12.774-9.408 2.98z"/>
                <path fill="#58595B" d="M472.813 504.603l-27.616 3.277-1.482-12.616 31.131-3.693z"/>
                <path fill="#F83C3D" d="M406.807 688.05c-2.02 0-3.662 1.65-3.662 3.68v15.826c0 2.03 1.643 3.68 3.662 3.68h14.674c2.019 0 3.662-1.65 3.662-3.68V691.73c0-2.03-1.643-3.68-3.662-3.68h-14.674zm14.674 25.882h-14.674c-3.498 0-6.345-2.86-6.345-6.376V691.73c0-3.516 2.847-6.377 6.345-6.377h14.674c3.498 0 6.345 2.86 6.345 6.377v15.826c0 3.516-2.847 6.376-6.345 6.376z"/>
                <path fill="#58595B" d="M449.093 520.932l-1.726-14.077 22.03-2.613c-1.312-5.882-6.863-9.931-12.95-9.209l-12.615 1.495c-6.5.773-11.147 6.692-10.38 13.225l2.209 20.057 6.384-2.994 1.724-3.162 5.324-2.722z"/>
                <path fill="#58595B" d="M457.851 496.298c-.413 0-.832.025-1.246.074l-12.615 1.496c-5.755.683-9.885 5.944-9.205 11.727l2.003 18.199 4.292-2.013 1.713-3.14 4.854-2.482-1.776-14.484 21.783-2.583c-1.532-4.013-5.442-6.794-9.803-6.794zm-23.318 35.529l-2.413-21.925c-.852-7.25 4.331-13.854 11.555-14.712l12.616-1.496c.517-.061 1.042-.092 1.56-.092 6.113 0 11.519 4.35 12.855 10.345l.325 1.459-22.168 2.629 1.676 13.67-5.792 2.962-1.737 3.184-8.477 3.976z"/>
                <path fill="#FFF" d="M576.742 485.05l-55.073 18.114-4.673-14.35 55.073-18.113z"/>
                <path fill="#F15A23" d="M518.688 489.676l3.838 11.787 52.524-17.274-3.839-11.788-52.523 17.275zm2.123 15.188l-5.507-16.912L572.927 469l5.507 16.913-57.623 18.95z"/>
                <path fill="#F15A23" d="M497.261 498.426l2.837 8.712 19.378-6.374-2.837-8.712-19.378 6.374zm1.122 12.113l-4.506-13.837 24.478-8.05 4.505 13.836-24.477 8.05z"/>
                <path fill="#F15A23" d="M481.268 506.522l1.335 4.1 14.278-4.696-1.335-4.1-14.278 4.696zm-.38 7.5l-3.004-9.224 19.378-6.372 3.003 9.224-19.378 6.372z"/>
                <path fill="#F15A23" d="M483.77 514.21l-4.08 1.341-3.67-11.274 4.08-1.342z"/>
                <path fill="#FFF" d="M457.936 685.893l28.782 148.311 23.209.176-6.384-8.826-23.34-149.954-.537-16.13h-51.84v26.693l-5.034 148.558h24.29l-5.044-6.786 12.557-141.622z"/>
                <path fill="#58595B" d="M424.182 833.103h20.191l-3.717-4.902 12.7-143.18 5.661-.598 28.807 148.442 19.455.147-5.012-6.928-.05-.322-23.352-150.17-.003-.083-.494-14.96h-48.932v25.614l-5.254 146.94zm25.61 2.696H421.4l.05-1.397 5.303-148.288-.001-28.262h54.21l.577 17.486 23.278 149.687 7.757 10.723-26.964-.204-.21-1.082-28.547-147.1-1.021.109-12.413 139.928 6.371 8.4z"/>
                <path fill="#FFF" d="M446.069 737.003c0 2.744-2.215 4.97-4.946 4.97h-56.105c-2.73 0-4.945-2.226-4.945-4.97v-36.434c0-2.745 2.214-4.97 4.945-4.97h56.105c2.731 0 4.946 2.225 4.946 4.97v36.434z"/>
                <path fill="#F83C3D" d="M385.287 696.677c-1.988 0-3.604 1.625-3.604 3.622v36.434c0 1.997 1.616 3.622 3.604 3.622h56.105c1.987 0 3.604-1.625 3.604-3.622v-36.434c0-1.997-1.617-3.622-3.604-3.622h-56.105zm56.105 46.374h-56.105c-3.467 0-6.287-2.834-6.287-6.318v-36.434c0-3.484 2.82-6.318 6.287-6.318h56.105c3.466 0 6.286 2.834 6.286 6.318v36.434c0 3.484-2.82 6.318-6.286 6.318z"/>
                <path fill="#F15A23" d="M446.837 628.915l4.647 3.4 5.486-3.44-3.114-61.075h-4.941l-2.078 61.115zm4.532 6.65l-7.262-5.312 2.215-65.149h10.083l3.325 65.218-8.36 5.243z"/>
                <path fill="#FFF" d="M540.868 483.329a.763.763 0 0 1-.524.94l-15.772 5.1a.758.758 0 0 1-.927-.541l-1.403-5.157a.762.762 0 0 1 .524-.94l15.772-5.1c.4-.11.815.132.926.541l1.404 5.157z"/>
                <path fill="#58595B" d="M523.682 483.851l1.097 4.034 14.65-4.737-1.099-4.033-14.648 4.736zm.694 6.892a2.108 2.108 0 0 1-2.024-1.559l-1.404-5.158a2.115 2.115 0 0 1 1.427-2.584l15.808-5.11c.18-.05.366-.075.552-.075.942 0 1.773.641 2.023 1.56l1.404 5.156c.301 1.114-.338 2.264-1.428 2.585l-15.809 5.111a2.08 2.08 0 0 1-.55.074z"/>
                <path fill="#58595B" d="M526.952 487.98l-1.566-5.448 2.577-.748 1.566 5.447zM531.364 486.859l-1.686-5.326 2.556-.817 1.686 5.325zM535.7 485.406l-1.686-5.325 2.556-.818 1.686 5.325zM459.3 516.007l-.402-2.666 3.563-.542.402 2.665z"/>
                <path fill="#FFF" d="M448.493 525.464a3.605 3.605 0 0 1-2.986 4.126l-.186.03a3.592 3.592 0 0 1-4.106-3l-.65-4.126a3.604 3.604 0 0 1 2.986-4.127l.186-.03a3.592 3.592 0 0 1 4.107 3.001l.649 4.126zM424.07 687.51v-5.47c0-1.224-.835-2.08-2.052-2.08h-1.704v-5.392h-12.34v5.124s-2.146 1.124-2.146 2.348v7.311c0 1.224 1.318 2.473 2.536 2.473h12.487v-4.314h3.22z"/>
                <path fill="#58595B" d="M407.437 682.077v7.274c0 .456.433.855.927.855h11.414v-4.314h3.22v-3.852c0-.486-.504-1-.98-1h-2.777v-5.393h-9.658v4.863l-.721.377c-.627.332-1.32.913-1.425 1.19zm15.024 10.825h-14.097c-1.99 0-3.61-1.593-3.61-3.551v-7.311c0-1.427 1.244-2.514 2.147-3.115v-5.974h15.023v5.392h.094c1.95 0 3.662 1.727 3.662 3.697v6.548h-3.22v4.314z"/>
                <path fill="#58595B" d="M409.583 690.206h2.683v-2.696h-2.683zM414.412 690.206h2.683v-2.696h-2.683z"/>
                <path fill="#F83C3D" d="M380.61 715.472h65.459v-2.696h-65.46z"/>
                <path fill="#F2F2F2" d="M420.85 713.932c0 2.085-1.68 3.775-3.755 3.775h-6.975c-2.074 0-3.756-1.69-3.756-3.775 0-2.084 1.682-3.774 3.756-3.774h6.975c2.074 0 3.756 1.69 3.756 3.774"/>
                <path fill="#F83C3D" d="M410.388 711.236a2.423 2.423 0 0 0-2.414 2.427 2.423 2.423 0 0 0 2.414 2.426h6.975a2.423 2.423 0 0 0 2.415-2.426 2.423 2.423 0 0 0-2.415-2.427h-6.975zm6.975 7.55h-6.975c-2.81 0-5.097-2.299-5.097-5.123 0-2.825 2.287-5.123 5.097-5.123h6.975c2.81 0 5.098 2.298 5.098 5.123 0 2.824-2.287 5.123-5.098 5.123z"/>
                <path fill="#58595B" d="M455.139 545.144l-.308-2.678 3.145-.365.308 2.678z"/>
                <path fill="#F83C3D" d="M411.193 714.472h5.366v-1.618h-5.366z"/>
            </g>
        </g>
    </g>
</svg>
