<svg xmlns="http://www.w3.org/2000/svg" width="38" height="31" viewBox="0 0 38 31">
    <path fill="#FFF" fill-rule="evenodd" d="M12.89 0C4.13 4.131 0 10.576 0 18.838c0 7.602 2.974 12.064 8.758 12.064 4.131 0 7.106-2.975 7.106-7.602 0-4.131-3.14-6.775-7.106-6.775-.248 0-.578 0-.826.083 0-4.958 2.644-8.18 7.932-10.494L12.889 0zm21.482 0c-8.758 4.131-12.89 10.576-12.89 18.838 0 7.602 2.975 12.064 8.759 12.064 4.13 0 7.105-2.975 7.105-7.602 0-4.131-3.14-6.775-7.105-6.775-.248 0-.579 0-.827.083 0-4.958 2.644-8.18 7.932-10.494L34.372 0z"/>
</svg>
