<svg xmlns="http://www.w3.org/2000/svg" width="172" height="27" viewBox="0 0 172 27">
    <defs>
        <linearGradient id="a" x1="-.002%" x2="99.996%" y1="50.003%" y2="50.003%">
            <stop offset="0%" stop-color="#F14C22"/>
            <stop offset="100%" stop-color="#F6861F"/>
        </linearGradient>
        <linearGradient id="b" x1="-.005%" x2="100.002%" y1="50.003%" y2="50.003%">
            <stop offset="0%" stop-color="#F14C22"/>
            <stop offset="100%" stop-color="#F6861F"/>
        </linearGradient>
        <linearGradient id="c" x1=".011%" x2="100.011%" y1="50%" y2="50%">
            <stop offset="0%" stop-color="#F14C22"/>
            <stop offset="100%" stop-color="#F6861F"/>
        </linearGradient>
        <linearGradient id="d" x1=".004%" y1="49.994%" y2="49.994%">
            <stop offset="0%" stop-color="#F14C22"/>
            <stop offset="100%" stop-color="#F6861F"/>
        </linearGradient>
        <linearGradient id="e" x1="-.002%" x2="99.999%" y1="49.997%" y2="49.997%">
            <stop offset="0%" stop-color="#F14C22"/>
            <stop offset="100%" stop-color="#F6861F"/>
        </linearGradient>
    </defs>
    <g fill="none" fill-rule="nonzero">
        <g fill="#58595B">
            <path d="M35.392 6.91c0-.41.056-.767.168-1.066.112-.3.257-.547.435-.743.179-.197.384-.347.618-.45a2.85 2.85 0 0 1 .716-.21c.186-.037.406-.074.658-.111.253-.038.57-.07.954-.1.384-.027.852-.051 1.403-.07a62.377 62.377 0 0 1 2.006-.027c1.74 0 3.176.14 4.308.42 1.132.28 2.03.668 2.694 1.163.665.495 1.132 1.079 1.403 1.752.271.672.407 1.401.407 2.186 0 .579-.07 1.093-.21 1.54a5.232 5.232 0 0 1-.533 1.192 4.303 4.303 0 0 1-1.502 1.47c.3.113.617.282.954.507.337.226.646.511.926.858s.515.769.702 1.265c.187.496.28 1.072.28 1.728 0 .861-.131 1.645-.393 2.347s-.74 1.307-1.431 1.812c-.692.506-1.647.896-2.863 1.167-1.217.272-2.77.407-4.66.407-.935 0-1.815-.015-2.637-.043a193.49 193.49 0 0 1-2.19-.084 30.777 30.777 0 0 1-1.543-.098 14.472 14.472 0 0 0-.673-.057V6.91h.003zm8.642 5.052c.468 0 .857-.052 1.165-.155.31-.102.556-.243.743-.42.187-.178.318-.375.394-.59.075-.215.111-.435.111-.66 0-.241-.04-.484-.125-.73-.085-.241-.253-.457-.505-.645-.253-.187-.609-.336-1.067-.449-.459-.111-1.052-.168-1.781-.168-.768 0-1.436.023-2.006.07-.57.047-.903.08-.997.098v3.65h4.068zm-4.068 7.774c.094.02.407.051.941.099.533.047 1.333.069 2.4.069.73 0 1.328-.046 1.796-.14.467-.094.841-.226 1.122-.393.28-.169.477-.375.589-.618.112-.243.168-.523.168-.842 0-.242-.037-.477-.111-.701a1.42 1.42 0 0 0-.407-.604c-.197-.177-.459-.317-.786-.421-.327-.103-.753-.154-1.276-.154h-4.433v3.705h-.003zM53.605 14.683c0-.915.153-1.73.463-2.44.309-.712.734-1.31 1.276-1.797a5.45 5.45 0 0 1 1.964-1.109c.768-.253 1.61-.38 2.526-.38 1.123 0 1.997.123 2.624.366s1.08.505 1.36.785c.169.188.3.384.394.59.094.206.14.449.14.73 0 .281-.042.542-.125.785a2.963 2.963 0 0 1-.31.646 4.264 4.264 0 0 1-.351.478 4.579 4.579 0 0 1-.252.28 8.068 8.068 0 0 0-1.15-.42 5.27 5.27 0 0 0-1.487-.198c-.712 0-1.315.207-1.81.618-.497.412-.745 1.094-.745 2.048v7.998h-4.517v-8.98zM66.372 23.664V6.07c0-.542.145-.96.435-1.25.29-.289.734-.434 1.334-.434h8.755c.954 0 1.432.44 1.432 1.318 0 .319-.047.6-.14.842a3.786 3.786 0 0 1-.226.506h-8.559v5.723h6.679c.935 0 1.402.44 1.402 1.319 0 .318-.047.6-.14.842a3.756 3.756 0 0 1-.225.505H69.4v8.222h-3.029v.001zM83.658 4.75c0 .486-.179.903-.533 1.248-.356.348-.786.52-1.292.52-.486 0-.906-.172-1.262-.52a1.679 1.679 0 0 1-.533-1.248c0-.486.178-.901.533-1.249a1.75 1.75 0 0 1 1.262-.519c.506 0 .936.174 1.292.52.355.346.533.761.533 1.248zm-3.256 6.146c0-.468.136-.805.407-1.01.271-.206.65-.31 1.137-.31.317 0 .603.033.856.099.252.065.425.117.52.154v13.834h-2.919V10.896zM96.735 23.664v-7.913c0-1.366-.328-2.404-.982-3.116-.655-.71-1.684-1.067-3.087-1.067-.954 0-1.712.09-2.273.268-.563.177-.917.304-1.067.378v11.45h-2.89V10.361c.075-.038.28-.121.617-.253.337-.13.785-.272 1.347-.42.562-.15 1.216-.281 1.964-.394a16.673 16.673 0 0 1 2.47-.169c1.028 0 1.965.137 2.806.407.843.272 1.558.66 2.147 1.165a5.121 5.121 0 0 1 1.36 1.823c.318.711.479 1.516.479 2.413v8.727h-2.891v.003zM107.54 11.373c-.543 0-1.025.046-1.446.14-.42.094-.785.201-1.094.323-.31.121-.566.252-.772.392-.206.142-.375.258-.505.352a1.7 1.7 0 0 1-.534-.562 1.581 1.581 0 0 1-.224-.842c0-.317.089-.585.267-.8.177-.214.416-.397.715-.547.318-.15.759-.295 1.319-.435.56-.141 1.263-.211 2.105-.211 1.122 0 2.132.104 3.031.309.899.206 1.66.547 2.287 1.025a4.641 4.641 0 0 1 1.445 1.866c.337.767.505 1.702.505 2.806v8.39c-.337.075-1.043.173-2.118.295-1.077.12-2.475.183-4.196.183-1.402 0-2.539-.127-3.41-.38-.87-.252-1.548-.589-2.034-1.01-.487-.42-.814-.901-.983-1.445a5.636 5.636 0 0 1-.253-1.684c0-.73.112-1.383.337-1.964.225-.58.59-1.066 1.095-1.459.505-.392 1.174-.697 2.006-.912.833-.214 1.857-.322 3.074-.322.841 0 1.603.02 2.286.056.683.038 1.137.075 1.36.112v-.14c0-.3-.027-.58-.083-.842-.15-.88-.558-1.549-1.221-2.006-.663-.46-1.651-.688-2.96-.688zm4.236 5.696a2.458 2.458 0 0 0-.42-.056l-.815-.07a28.598 28.598 0 0 0-1.025-.07 21.358 21.358 0 0 0-1.052-.028c-1.403 0-2.409.216-3.017.646-.608.43-.912 1.094-.912 1.992 0 .375.056.721.169 1.038.111.318.317.59.616.815.3.225.702.397 1.207.519.505.121 1.14.183 1.908.183.954 0 1.702-.037 2.244-.112.543-.074.907-.14 1.095-.197v-4.66h.002zM127.828 23.664v-7.913c0-1.366-.327-2.404-.982-3.116-.655-.71-1.684-1.067-3.087-1.067-.954 0-1.712.09-2.273.268-.562.177-.917.304-1.067.378v11.45h-2.89V10.361c.075-.038.28-.121.617-.253.337-.13.785-.272 1.348-.42.561-.15 1.216-.281 1.964-.394a16.673 16.673 0 0 1 2.469-.169c1.028 0 1.965.137 2.807.407.842.272 1.557.66 2.146 1.165a5.121 5.121 0 0 1 1.361 1.823c.317.711.478 1.516.478 2.413v8.727h-2.891v.003zM140.54 11.57c-.654 0-1.263.107-1.823.322a4.18 4.18 0 0 0-1.473.954c-.422.42-.754.945-.996 1.571-.244.627-.365 1.36-.365 2.202 0 .88.12 1.633.365 2.26.242.626.58 1.15 1.01 1.57.43.422.926.73 1.487.927a5.499 5.499 0 0 0 1.824.294c.467 0 .897-.046 1.29-.14a8.449 8.449 0 0 0 1.038-.31c.3-.111.547-.225.743-.336.197-.113.333-.196.407-.253l1.234 1.992c-.168.113-.402.253-.7.42-.3.17-.66.328-1.081.479a9.783 9.783 0 0 1-3.268.533 8.397 8.397 0 0 1-2.89-.491 6.569 6.569 0 0 1-2.33-1.432c-.655-.627-1.174-1.399-1.558-2.315-.383-.916-.574-1.965-.574-3.143 0-1.18.19-2.232.574-3.157a6.838 6.838 0 0 1 1.586-2.358 6.806 6.806 0 0 1 2.37-1.473 8.346 8.346 0 0 1 2.934-.506c.635 0 1.193.038 1.67.112.477.074.887.169 1.234.28.345.113.621.225.827.337.206.112.365.206.477.28.188.15.346.328.478.533.13.207.196.449.196.73 0 .225-.074.491-.225.8-.15.31-.375.576-.674.8a6.521 6.521 0 0 0-.477-.421 4.273 4.273 0 0 0-.785-.49 5.84 5.84 0 0 0-1.109-.407 5.623 5.623 0 0 0-1.416-.165zM150.279 4.75c0 .486-.18.903-.534 1.248-.355.348-.785.52-1.29.52-.487 0-.908-.172-1.263-.52a1.679 1.679 0 0 1-.533-1.248c0-.486.177-.901.533-1.249a1.75 1.75 0 0 1 1.262-.519c.506 0 .936.174 1.291.52.355.346.534.761.534 1.248zm-3.256 6.146c0-.468.136-.805.407-1.01.271-.206.65-.31 1.137-.31.317 0 .603.033.856.099.252.065.425.117.52.154v13.834h-2.919V10.896zM158.08 11.373c-.542 0-1.024.046-1.445.14-.42.094-.785.201-1.095.323-.309.121-.565.252-.772.392-.206.142-.374.258-.505.352a1.7 1.7 0 0 1-.533-.562 1.581 1.581 0 0 1-.224-.842c0-.317.088-.585.266-.8.178-.214.417-.397.716-.547.317-.15.758-.295 1.318-.435.56-.141 1.264-.211 2.105-.211 1.123 0 2.133.104 3.032.309.898.206 1.66.547 2.286 1.025a4.641 4.641 0 0 1 1.445 1.866c.337.767.505 1.702.505 2.806v8.39c-.336.075-1.042.173-2.118.295-1.076.12-2.475.183-4.196.183-1.402 0-2.538-.127-3.41-.38-.87-.252-1.547-.589-2.033-1.01-.487-.42-.815-.901-.983-1.445a5.636 5.636 0 0 1-.253-1.684c0-.73.112-1.383.337-1.964.225-.58.59-1.066 1.094-1.459.506-.392 1.174-.697 2.007-.912.832-.214 1.856-.322 3.073-.322.842 0 1.604.02 2.287.056.683.038 1.137.075 1.36.112v-.14c0-.3-.028-.58-.084-.842-.15-.88-.557-1.549-1.22-2.006-.664-.46-1.652-.688-2.96-.688zm4.236 5.696a2.458 2.458 0 0 0-.42-.056l-.815-.07a28.598 28.598 0 0 0-1.024-.07 21.359 21.359 0 0 0-1.052-.028c-1.403 0-2.41.216-3.018.646-.607.43-.912 1.094-.912 1.992 0 .375.057.721.17 1.038.11.318.316.59.616.815.299.225.702.397 1.207.519.505.121 1.14.183 1.908.183.953 0 1.702-.037 2.244-.112.542-.074.907-.14 1.094-.197v-4.66h.002zM168.266 4.3c0-.448.135-.78.407-.996.27-.215.65-.322 1.136-.322.318 0 .604.037.857.112.252.075.425.131.519.168v20.401h-2.918V4.3h-.001z"/>
        </g>
        <path fill="url(#a)" d="M7.487 26.893H2.89A2.788 2.788 0 0 1 .1 24.105V19.59a2.871 2.871 0 0 1 2.87-2.871h4.516a2.788 2.788 0 0 1 2.788 2.788v4.598a2.788 2.788 0 0 1-2.788 2.788z"/>
        <path fill="url(#b)" d="M16.254 12.315l-3.28 3.444a1.19 1.19 0 0 0-.328.82v8.879c0 .757.614 1.37 1.37 1.37h2.873c.78 0 1.415-.633 1.415-1.415v-12.28c0-1.07-1.31-1.595-2.05-.818z"/>
        <path fill="url(#c)" d="M23.84 4.77l-2.742 2.88a1.54 1.54 0 0 0-.425 1.062v16.226c0 1.044.847 1.891 1.892 1.891h1.868a1.891 1.891 0 0 0 1.891-1.891V5.764c.001-1.3-1.586-1.934-2.483-.993z"/>
        <path fill="url(#d)" d="M14.62 10.71l-3.475 3.31a1.172 1.172 0 0 1-.81.325h-8.33a1.872 1.872 0 0 1-1.873-1.873v-1.93c0-1.025.83-1.856 1.855-1.856h11.821c1.061 0 1.578 1.294.811 2.025z"/>
        <path fill="url(#e)" d="M22.209 3.098L19.214 5.95a1.31 1.31 0 0 1-.903.361H2.076A1.942 1.942 0 0 1 .133 4.37V2.644C.133 1.549 1.021.66 2.117.66h19.117c1.275 0 1.898 1.557.975 2.438z"/>
    </g>
</svg>
