<?xml version="1.0" encoding="UTF-8" standalone="no"?>
<svg width="65px" height="63px" viewBox="0 0 65 63" version="1.1" xmlns="http://www.w3.org/2000/svg" xmlns:xlink="http://www.w3.org/1999/xlink">
    <!-- Generator: Sketch 45.2 (43514) - http://www.bohemiancoding.com/sketch -->
    <title>upload</title>
    <desc>Created with Sketch.</desc>
    <defs></defs>
    <g id="v2" stroke="none" stroke-width="1" fill="none" fill-rule="evenodd">
        <g id="BrFinancial---form" transform="translate(-928.000000, -1649.000000)" fill-rule="nonzero" fill="#58595B">
            <g id="Group-2" transform="translate(739.000000, 1649.312500)">
                <g id="upload" transform="translate(189.000000, 0.000000)">
                    <path d="M52.2114898,16.1978128 C51.5250176,11.9489807 49.5052053,8.07140586 46.4160804,5.12884904 C42.9837196,1.85628585 38.5216504,0.0550010621 33.8747618,0.0550010621 C30.2839842,0.0550010621 26.7856164,1.12752177 23.7889013,3.1488108 C21.293839,4.8263432 19.221221,7.09513701 17.755867,9.76268852 C17.1222003,9.63893613 16.4621309,9.5701848 15.8020615,9.5701848 C10.1914716,9.5701848 5.62379132,14.3277767 5.62379132,20.1716395 C5.62379132,20.9279041 5.70299965,21.6566682 5.83501353,22.371682 C2.20463181,25.1217351 0,29.5493206 0,34.2656617 C0,38.0744852 1.35974297,41.7733067 3.84160393,44.7021132 C6.38947183,47.6996711 9.75582578,49.4734554 13.3466033,49.6797093 C13.3862075,49.6797093 13.4126103,49.6797093 13.4522144,49.6797093 L24.8054082,49.6797093 C25.7955123,49.6797093 26.5875956,48.8546934 26.5875956,47.8234235 C26.5875956,46.7921536 25.7955123,45.9671376 24.8054082,45.9671376 L13.50502,45.9671376 C8.10565227,45.623381 3.56437478,40.2745277 3.56437478,34.2519114 C3.56437478,30.3605863 5.57098576,26.7305162 8.80532584,24.7642282 C9.55780496,24.3104694 9.87463828,23.3617011 9.58420774,22.5091847 C9.32017998,21.7666703 9.1881661,20.9829052 9.1881661,20.144139 C9.1881661,16.3490657 12.1584784,13.255256 15.8020615,13.255256 C16.5809434,13.255256 17.3466239,13.3927586 18.0594989,13.6677639 C18.9307905,13.9977703 19.8944918,13.5852623 20.2905335,12.7189956 C22.759193,7.2601402 28.0925538,3.74007222 33.8879632,3.74007222 C41.6767821,3.74007222 48.1058581,9.81768958 48.8451359,17.8753452 C48.9243442,18.7141114 49.531608,19.3878744 50.3236913,19.525377 C56.198309,20.5703972 60.6339754,26.2217564 60.6339754,32.6706309 C60.6339754,39.5045128 55.4722327,45.4446276 49.1091636,45.9533874 L39.3797406,45.9533874 C38.3896365,45.9533874 37.5975532,46.7784033 37.5975532,47.8096732 C37.5975532,48.8409431 38.3896365,49.6659591 39.3797406,49.6659591 L49.1751706,49.6659591 C49.2147747,49.6659591 49.2543789,49.6659591 49.3071844,49.6659591 C53.3336078,49.3634532 57.0960034,47.4384161 59.8946977,44.2208539 C62.6801905,41.0307923 64.1983502,36.9332132 64.1983502,32.6706309 C64.1851488,24.9567319 59.1290172,18.0953494 52.2114898,16.1978128 Z" id="Shape"></path>
                    <path d="M42.7989001,36.0256957 C43.4985737,35.2969316 43.4985737,34.128159 42.7989001,33.399395 L33.3599076,23.5679551 C33.0298729,23.2241985 32.5678244,23.0179445 32.1057758,23.0179445 C31.6437272,23.0179445 31.1816786,23.2104482 30.8516439,23.5679551 L21.4126514,33.399395 C20.7129779,34.128159 20.7129779,35.2969316 21.4126514,36.0256957 C21.7558875,36.3832026 22.2179361,36.5757063 22.6667833,36.5757063 C23.1156305,36.5757063 23.5776791,36.3969528 23.9209152,36.0256957 L30.3235884,29.3568169 L30.3235884,60.0061587 C30.3235884,61.0374287 31.1156717,61.8624446 32.1057758,61.8624446 C33.0958799,61.8624446 33.8879632,61.0374287 33.8879632,60.0061587 L33.8879632,29.3568169 L40.2906364,36.0256957 C40.9771086,36.7544597 42.0992265,36.7544597 42.7989001,36.0256957 Z" id="Shape"></path>
                </g>
            </g>
        </g>
    </g>
</svg>