<svg xmlns="http://www.w3.org/2000/svg" width="94" height="88" viewBox="0 0 94 88">
    <g fill="#FFF" fill-rule="evenodd">
        <path d="M78.447 43.322c.777.603 1.26 1.37 1.556 2.037 1.2-.523 2.293-.822 3.277-.926-.537-1.53-1.583-3.149-3.13-4.265-2.034-1.468-5.579-2.605-10.963.34L59.51 46.2c-.813.478-1.118 1.586-.68 2.475.437.888 1.453 1.222 2.264.744l9.632-5.666c3.183-1.742 5.853-1.887 7.721-.43"/>
        <path d="M86.804 47.386c1.186.924 1.74 2.25 1.877 2.973l-6.176 3.376c2.637-.501 4.687-.108 6.192.7l2.084-1.14c.746-.408 1.21-1.258 1.268-2.334.106-1.946-1.098-4.965-3.543-6.73-2.034-1.467-5.578-2.599-10.918.317l-16.352 8.94c-.826.452-1.16 1.55-.748 2.451.413.903 1.417 1.268 2.243.818l16.351-8.941c3.181-1.738 5.852-1.89 7.722-.43M15.179 82.517H1.809c-.924 0-1.672-.818-1.672-1.827V42.328c0-1.01.748-1.827 1.672-1.827h13.37c.923 0 1.671.818 1.671 1.827V80.69c0 1.01-.748 1.827-1.671 1.827zM3.48 78.863h10.027V44.155H3.48v34.708zM67.694 38.079c-3.016-1.894-6.55-1.657-9.948.662-1.4.954-2.761 1.79-4.065 2.539a7.527 7.527 0 0 1 1.477 3.289 65.64 65.64 0 0 0 4.358-2.728c2.3-1.57 4.437-1.804 6.349-.694.969.562 1.682 1.358 2.186 2.104l1.928-1.133c.388-.213.747-.36 1.115-.526-.789-1.315-1.947-2.603-3.4-3.513"/>
        <path d="M48.604 55.116c-4.608 0-8.357-4.098-8.357-9.134 0-5.036 3.75-9.134 8.357-9.134 4.607 0 8.356 4.098 8.356 9.134 0 5.036-3.75 9.134-8.356 9.134m0-14.615c-2.765 0-5.014 2.459-5.014 5.48 0 3.023 2.249 5.48 5.014 5.48 2.764 0 5.013-2.457 5.013-5.48 0-3.021-2.249-5.48-5.013-5.48M41.919 25.888c-3.688 0-6.685-3.278-6.685-7.308 0-4.03 2.997-7.307 6.685-7.307 3.687 0 6.685 3.277 6.685 7.307s-2.998 7.308-6.685 7.308m0-10.961c-1.843 0-3.343 1.64-3.343 3.653 0 2.015 1.5 3.654 3.343 3.654 1.842 0 3.342-1.64 3.342-3.654 0-2.013-1.5-3.653-3.342-3.653"/>
        <path d="M50.274 18.58c-4.607 0-8.356-4.097-8.356-9.133 0-5.036 3.75-9.134 8.356-9.134 4.607 0 8.357 4.098 8.357 9.134 0 5.036-3.75 9.134-8.357 9.134m0-14.615c-2.765 0-5.013 2.459-5.013 5.48 0 3.023 2.248 5.481 5.013 5.481 2.765 0 5.014-2.458 5.014-5.48 0-3.022-2.25-5.48-5.014-5.48M93.345 56.928c-1.095-2.886-5.399-7.54-13.868-4.45-.08.03-.156.065-.231.106l-14.691 8.211c-.822.46-1.147 1.561-.728 2.459.42.897 1.426 1.25 2.25.795l14.575-8.147c3.374-1.2 6.275-1.01 8.182.539.869.706 1.299 1.51 1.465 2.003-3.522 2.116-18.865 11.647-24.983 15.45V78.1c7.907-4.92 25.985-16.146 27.136-16.773 1.055-.577 1.74-2.161.893-4.398"/>
        <path d="M63.289 67.066c-3.194-1.91-8.368-2.656-13.492.828-1.663-.065-3.903-.444-4.804-1.106-2.21-6.626-8.052-13.499-18.116-13.499-.924 0-1.671.817-1.671 1.826 0 1.01.747 1.827 1.671 1.827 8.56 0 13.426 5.96 15.128 11.539.002.007.015.01.018.017.08.254.2.494.384.696 2.056 2.248 6.914 2.362 7.868 2.362.33 0 .652-.107.927-.307 4.03-2.942 8.165-2.365 10.482-.977 1.532.915 2.47 2.24 2.448 3.46-.02 1.242-1.052 2.484-2.906 3.497l-13.002 7.107c-18.899-.085-29.112-6.388-33.045-20.386v8.864c7.631 13.424 22.323 15.183 33.425 15.183h.001l.01-.002c.248-.002.478-.071.69-.178.015-.01.031-.005.046-.013l13.37-7.307c4.075-2.228 4.728-5.152 4.754-6.696.044-2.623-1.521-5.14-4.186-6.735M15.179 51.02c.369-.96.817-1.87 1.384-2.703 2.552-3.75 7.033-5.989 11.986-5.989 7.058 0 13.838 6.754 13.906 6.822.067.068.152.1.227.153-.472-1-.763-2.119-.763-3.321 0-.612.09-1.197.218-1.765-2.949-2.304-8.069-5.542-13.588-5.542-5.254 0-10.108 2.135-13.37 5.8v6.545z"/>
    </g>
</svg>
