<svg xmlns="http://www.w3.org/2000/svg" width="87" height="83" viewBox="0 0 87 83">
    <g fill="#FFF" fill-rule="evenodd">
        <path d="M84.359 78.494h-1.574V21.6c-.001-3.02-2.434-5.475-5.424-5.475H65.486V6.212c0-3.019-2.446-5.474-5.454-5.474H26.527c-2.99 0-5.424 2.455-5.424 5.474v9.913H9.23c-3.007 0-5.454 2.456-5.454 5.475v56.894H2.201c-1.072 0-1.94.872-1.94 1.948 0 1.075.868 1.947 1.94 1.947h82.158c1.071 0 1.94-.872 1.94-1.948a1.943 1.943 0 0 0-1.94-1.947zM77.36 20.019c.851 0 1.544.71 1.544 1.581v56.894H65.486V20.019h11.875zM39.25 78.494h8.087V68.066h-8.086v10.428zm11.967-11.342c0-1.643-1.346-2.98-3-2.98h-9.876a2.979 2.979 0 0 0-2.97 2.98v11.342H24.983V6.212c0-.87.693-1.58 1.544-1.58h33.505c.869 0 1.575.71 1.575 1.58v72.282H51.218V67.152zM7.655 21.6c0-.871.706-1.58 1.574-1.58h11.874v58.474H7.655V21.6z"/>
        <path d="M38.554 28.632h-6.846A2.666 2.666 0 0 0 29.05 31.3v4.318a2.666 2.666 0 0 0 2.658 2.668h6.846c1.449 0 2.628-1.197 2.628-2.668V31.3c0-1.47-1.18-2.668-2.628-2.668zm-6.309 6.447h5.742v-3.24h-5.742v3.24zM54.943 28.632h-6.846a2.666 2.666 0 0 0-2.658 2.668v4.318a2.665 2.665 0 0 0 2.658 2.668h6.846a2.665 2.665 0 0 0 2.658-2.668V31.3a2.666 2.666 0 0 0-2.658-2.668zm-6.309 6.447h5.772v-3.24h-5.772v3.24zM38.554 9.17h-6.846a2.666 2.666 0 0 0-2.658 2.668v4.318c0 1.454 1.192 2.638 2.658 2.638h6.846a2.636 2.636 0 0 0 2.628-2.638v-4.318c0-1.47-1.18-2.668-2.628-2.668zm-6.309 6.416h5.742v-3.209h-5.742v3.21zM54.943 9.17h-6.846a2.666 2.666 0 0 0-2.658 2.668v4.318c0 1.454 1.192 2.638 2.658 2.638h6.846c1.466 0 2.658-1.184 2.658-2.638v-4.318a2.666 2.666 0 0 0-2.658-2.668zm-6.309 6.416h5.772v-3.209h-5.772v3.21zM69.272 32.66h5.847a1.6 1.6 0 0 0 1.598-1.603 1.6 1.6 0 0 0-1.598-1.604h-5.847a1.6 1.6 0 0 0-1.597 1.604 1.6 1.6 0 0 0 1.597 1.603M69.272 48.443h5.847a1.6 1.6 0 0 0 1.598-1.604 1.6 1.6 0 0 0-1.598-1.603h-5.847a1.6 1.6 0 0 0-1.597 1.603 1.6 1.6 0 0 0 1.597 1.604M75.12 61.048h-5.848a1.6 1.6 0 0 0-1.597 1.604 1.6 1.6 0 0 0 1.597 1.603h5.847a1.6 1.6 0 0 0 1.598-1.603 1.6 1.6 0 0 0-1.598-1.604M11.471 32.66h5.816a1.6 1.6 0 0 0 1.598-1.603 1.6 1.6 0 0 0-1.598-1.604h-5.816a1.6 1.6 0 0 0-1.597 1.604 1.6 1.6 0 0 0 1.597 1.603M17.287 45.236h-5.816a1.6 1.6 0 0 0-1.597 1.603 1.6 1.6 0 0 0 1.597 1.604h5.816a1.6 1.6 0 0 0 1.598-1.604 1.6 1.6 0 0 0-1.598-1.603M17.287 61.048h-5.816a1.6 1.6 0 0 0-1.597 1.604 1.6 1.6 0 0 0 1.597 1.603h5.816a1.6 1.6 0 0 0 1.598-1.603 1.6 1.6 0 0 0-1.598-1.604M38.554 48.094h-6.846a2.666 2.666 0 0 0-2.658 2.668v4.318a2.666 2.666 0 0 0 2.658 2.668h6.846c1.449 0 2.628-1.197 2.628-2.668v-4.318c0-1.471-1.18-2.668-2.628-2.668zm-6.309 6.447h5.742V51.3h-5.742v3.24zM54.943 48.094h-6.846a2.666 2.666 0 0 0-2.658 2.668v4.318a2.666 2.666 0 0 0 2.658 2.668h6.846a2.666 2.666 0 0 0 2.658-2.668v-4.318a2.666 2.666 0 0 0-2.658-2.668zm-6.309 6.447h5.772V51.3h-5.772v3.24z"/>
    </g>
</svg>
