<svg xmlns="http://www.w3.org/2000/svg" width="134" height="122" viewBox="0 0 134 122">
    <defs>
        <linearGradient id="a" x1="49.4%" x2="49.4%" y1="100%" y2="0%">
            <stop offset="0%" stop-color="#F68482"/>
            <stop offset="100%" stop-color="#F79996"/>
        </linearGradient>
        <linearGradient id="b" x1="49.4%" x2="49.4%" y1="91.724%" y2=".123%">
            <stop offset="0%" stop-color="#F3A58A" stop-opacity=".986"/>
            <stop offset="100%" stop-color="#F79796"/>
        </linearGradient>
        <linearGradient id="c" x1="10.563%" x2="103.63%" y1="49.4%" y2="49.4%">
            <stop offset="0%" stop-color="#FFF" stop-opacity=".6"/>
            <stop offset="100%" stop-color="#FFF" stop-opacity=".199"/>
        </linearGradient>
        <linearGradient id="d" x1="34.619%" y1="65.589%" y2="0%">
            <stop offset="0%" stop-color="#FFF" stop-opacity="0"/>
            <stop offset="68.828%" stop-color="#F15A23"/>
            <stop offset="100%" stop-color="#F83C3D"/>
        </linearGradient>
        <linearGradient id="e" x1="55.953%" y1="0%" y2="100%">
            <stop offset="0%" stop-color="#F15A23"/>
            <stop offset="34.552%" stop-color="#F15A23"/>
            <stop offset="100%" stop-color="#F83C3D"/>
        </linearGradient>
        <linearGradient id="f" x1="55.953%" y1="0%" y2="100%">
            <stop offset="0%" stop-color="#F15A23"/>
            <stop offset="100%" stop-color="#F83C3D"/>
        </linearGradient>
    </defs>
    <g fill="none" fill-rule="evenodd">
        <g transform="translate(13.429 28.644)">
            <path fill="url(#a)" d="M15.312 36.514h8.245v37.692h-8.245zM85.985 36.514h8.245v37.692h-8.245zM65.961 36.514h8.245v37.692h-8.245zM35.336 36.514h8.245v37.692h-8.245z"/>
            <path fill="url(#b)" d="M5.889 71.85h97.528v11.779H5.889zM54.182 0l53.004 37.692H1.178z"/>
            <circle cx="54.182" cy="20.024" r="9.614" fill="url(#c)"/>
            <path fill="url(#b)" d="M0 81.273h108.364v11.779H0z"/>
        </g>
        <g stroke-linecap="round" stroke-linejoin="round" stroke-width="2">
            <path stroke="url(#d)" d="M0 4.711h35.336" transform="translate(94.74 79.6)"/>
            <path stroke="#F83C3D" d="M128.66 80.162l3.786 4.512-4.512 3.785"/>
            <g>
                <path stroke="url(#d)" d="M0 4.711h35.336" transform="matrix(-1 0 0 1 39.304 79.6)"/>
                <path stroke="#F83C3D" d="M5.384 80.162l-3.786 4.512 4.512 3.785"/>
            </g>
        </g>
        <path fill="url(#e)" d="M64.28 12.495h4.266c-.397-3.297 4.563-4.322 4.563-7.757 0-3.27-2.81-4.738-6.547-4.738-2.447 0-4.53 1.025-6.018 2.521l2.678 2.05c.893-.748 1.786-1.274 3.01-1.274 1.322 0 2.215.61 2.215 1.745 0 2.078-4.828 3.657-4.167 7.453z" transform="translate(0 .375)"/>
        <path fill="url(#f)" d="M64.077 16.711c0 1.44 1.224 2.549 2.91 2.549 1.687 0 2.943-1.108 2.943-2.549 0-1.468-1.256-2.577-2.943-2.577-1.686 0-2.91 1.109-2.91 2.577z" transform="translate(0 .375)"/>
    </g>
</svg>
