<svg xmlns="http://www.w3.org/2000/svg" xmlns:xlink="http://www.w3.org/1999/xlink" width="276" height="214" viewBox="0 0 276 214">
    <defs>
        <linearGradient id="a" x1="96.336%" x2="0%" y1="19.324%" y2="50%">
            <stop offset="0%" stop-color="#F3A58A" stop-opacity=".986"/>
            <stop offset="100%" stop-color="#F79796"/>
        </linearGradient>
        <linearGradient id="b" x1="27.722%" x2="101.073%" y1="49.4%" y2="49.4%">
            <stop offset="0%" stop-color="#FCD7D2" stop-opacity="0"/>
            <stop offset="100%" stop-color="#FF8E8E"/>
        </linearGradient>
        <linearGradient id="c" x1="125.677%" x2="25.645%" y1="45.923%" y2="45.923%">
            <stop offset="0%" stop-color="#F3A58A" stop-opacity=".986"/>
            <stop offset="100%" stop-color="#F79796" stop-opacity="0"/>
        </linearGradient>
        <linearGradient id="d" x1="95.201%" x2="3.6%" y1="45.923%" y2="45.923%">
            <stop offset="0%" stop-color="#F3A58A" stop-opacity=".986"/>
            <stop offset="100%" stop-color="#F79796"/>
        </linearGradient>
        <linearGradient id="f" x1="149.701%" x2="36.206%" y1="49.4%" y2="49.4%">
            <stop offset="0%" stop-color="#FFF" stop-opacity=".6"/>
            <stop offset="100%" stop-color="#FFF" stop-opacity="0"/>
        </linearGradient>
        <rect id="e" width="65.779" height="20" x="104.594" y="17.105" rx="10"/>
        <linearGradient id="g" x1="19.511%" y1="80.745%" y2="0%">
            <stop offset="0%" stop-color="#FFF"/>
            <stop offset="30.775%" stop-color="#F15A23"/>
            <stop offset="100%" stop-color="#F83C3D"/>
        </linearGradient>
        <linearGradient id="h" x1="55.953%" x2="55.953%" y1="90.263%" y2="6.602%">
            <stop offset="0%" stop-color="#F15A23" stop-opacity=".495"/>
            <stop offset="100%" stop-color="#F83C3D" stop-opacity=".501"/>
        </linearGradient>
        <linearGradient id="i" x1="55.953%" x2="55.953%" y1="0%" y2="98.812%">
            <stop offset="0%" stop-color="#F15A23" stop-opacity=".495"/>
            <stop offset="100%" stop-color="#F83C3D" stop-opacity=".501"/>
        </linearGradient>
        <linearGradient id="j" x1="57.096%" x2="57.096%" y1="2.866%" y2="95.934%">
            <stop offset="0%" stop-color="#FFF"/>
            <stop offset="100%" stop-color="#FFF" stop-opacity=".199"/>
        </linearGradient>
    </defs>
    <g fill="none" fill-rule="evenodd">
        <path fill="url(#a)" d="M221 25l-44.381 26.629a30 30 0 0 1-12.148 4.094C132.55 59.243 114.059 61.001 109 61c-5.395-.001-12.728-2.009-22-6.022V5h25.628a30 30 0 0 1 15.534 4.335L153.88 24.9a15 15 0 0 0 10.969 1.822l52.579-11.489a5.219 5.219 0 0 1 4.306 1.162 5.272 5.272 0 0 1 1.887 4.045c0 1.87-1.004 3.619-2.62 4.56z" transform="translate(-21 153)"/>
        <path fill="url(#b)" d="M0 0h76v61H0z" transform="translate(-21 153)"/>
        <path fill="url(#c)" d="M76 0h11.337v61H76z" transform="translate(-21 153)"/>
        <g transform="rotate(30 -158.519 64.418)">
            <use fill="url(#d)" xlink:href="#e"/>
            <use fill="url(#f)" xlink:href="#e"/>
        </g>
        <g stroke-linecap="round" stroke-linejoin="round" stroke-width="3">
            <path stroke="url(#g)" d="M0 75.376l40.699-40.698 14.335 14.335 47.505-47.506" transform="translate(170 2)"/>
            <path stroke="#F83C3D" d="M261.95 2h12.058v12.059"/>
        </g>
        <g transform="translate(88 4)">
            <path fill="url(#h)" d="M73.144 33.862a26.268 26.268 0 0 0 5.791-16.392l.03-8.026h-.161V6.215a5.277 5.277 0 1 0-10.555 0v3.229h-.085a5.278 5.278 0 0 1-10.511 0h-.084V6.215a5.277 5.277 0 0 0-10.555 0v3.229h-.085a5.278 5.278 0 0 1-10.533-.486V5.465A5.411 5.411 0 0 0 31.058.938a5.148 5.148 0 0 0-5.146 5.275l.265 10.684c.012.475.085.934.21 1.37a26.06 26.06 0 0 0 5.678 15.595h41.08z"/>
            <path fill="url(#i)" d="M25.63 49.163C10.281 58.26 0 74.927 0 93.982c0 28.797 23.483 52.142 52.451 52.142s52.451-23.345 52.451-52.142c0-19.055-10.281-35.722-25.63-44.819H25.63z"/>
            <rect width="61.39" height="12.206" x="21.566" y="35.505" fill="#F39C92" rx="6.103"/>
            <path fill="url(#j)" fill-rule="nonzero" d="M52.549 91.696a3.62 3.62 0 0 1-3.619-3.618 3.62 3.62 0 0 1 3.619-3.619 3.62 3.62 0 0 1 3.618 3.619h7.237c0-4.711-3.036-8.692-7.237-10.19v-4.284H48.93v4.284c-4.2 1.498-7.237 5.479-7.237 10.19 0 5.985 4.87 10.855 10.856 10.855a3.62 3.62 0 0 1 3.618 3.619 3.62 3.62 0 0 1-3.618 3.618 3.62 3.62 0 0 1-3.619-3.618h-7.237c0 4.711 3.036 8.692 7.237 10.19v4.284h7.237v-4.284c4.201-1.498 7.237-5.479 7.237-10.19 0-5.985-4.87-10.856-10.855-10.856z"/>
        </g>
    </g>
</svg>
