<svg xmlns="http://www.w3.org/2000/svg" width="79" height="134" viewBox="0 0 79 134">
    <g fill="#FFF" fill-rule="evenodd">
        <path d="M60.531 20.466c-2.61-2.619-5.872-4.183-8.722-4.183-1.693 0-3.137.552-4.179 1.596l-2.58 2.587c-2.893 2.903-1.76 8.587 2.582 12.943 2.61 2.619 5.871 4.183 8.722 4.183 1.693 0 3.137-.553 4.177-1.595l2.582-2.59c2.891-2.903 1.757-8.588-2.582-12.94m.86 11.217c-1.865 1.87-6.196.685-9.46-2.588a1.213 1.213 0 0 0-1.72 0 1.222 1.222 0 0 0 0 1.724c2.338 2.345 5.057 3.75 7.524 4.1-.484.17-.977.232-1.38.232-2.188 0-4.87-1.33-7.003-3.468-3.264-3.275-4.446-7.621-2.581-9.492l2.58-2.587c.726-.729 1.737-.881 2.458-.881 2.187 0 4.87 1.328 7.002 3.468 3.263 3.273 4.444 7.62 2.58 9.492M46.628 44.31c-1.066-1.896-3.283-2.982-6.08-2.982-2.259 0-4.759.71-7.039 2-5.347 3.024-7.962 8.195-5.932 11.805l2.076 3.428c1.065 1.895 3.282 2.982 6.078 2.982 2.26 0 4.762-.71 7.042-2 5.106-2.888 7.692-8.403 5.648-12.043l-1.793-3.19zm-5.05 13.108c-1.922 1.087-3.998 1.685-5.847 1.685-1.894 0-3.337-.634-3.98-1.776L29.677 53.9c-1.295-2.305 1.008-6.174 5.028-8.447 1.921-1.087 3.997-1.685 5.845-1.685 1.894 0 3.338.634 3.96 1.742 1.22 2.172-.42 6.285-4.722 8.72a1.222 1.222 0 0 0-.463 1.662 1.217 1.217 0 0 0 1.657.463c2.713-1.535 4.705-3.811 5.678-6.154.077 2.244-1.629 5.264-5.081 7.217zM32.205 37.366c1.33-2.935.702-4.457-.057-5.217l-3.44-3.453c-.377-.377-1.065-.827-2.201-.827-2.378 0-5.818 1.97-8.98 5.14-3.845 3.858-6.557 8.95-4.3 11.216l3.44 3.453c.377.377 1.065.827 2.201.827 2.377 0 5.818-1.97 8.98-5.142 1.939-1.945 3.486-4.075 4.357-5.997m-13.337 8.7c-.23 0-.41-.044-.48-.114l-1.211-1.215c2.29-.698 4.97-2.556 7.231-4.825a1.221 1.221 0 0 0 0-1.725 1.213 1.213 0 0 0-1.72 0c-1.737 1.743-3.607 3.12-5.265 3.875-1.635.745-2.354.56-2.476.438-.498-.502.39-3.844 4.3-7.765 3.033-3.042 5.889-4.426 7.26-4.426.23 0 .41.043.481.113l3.44 3.451c.123.125.305.844-.437 2.484-.754 1.662-2.125 3.537-3.863 5.28-3.032 3.044-5.889 4.428-7.26 4.428M37.943 39.583c.672 0 1.216-.547 1.216-1.22V21.28c0-.674-.544-1.22-1.216-1.22-.671 0-1.216.546-1.216 1.22v17.082c0 .674.545 1.22 1.216 1.22M26.996 25.324c.672 0 1.217-.547 1.217-1.22v-4.881c0-.674-.545-1.22-1.217-1.22-.671 0-1.215.546-1.215 1.22v4.88c0 .674.544 1.22 1.215 1.22M61.053 18.723c.671 0 1.216-.546 1.216-1.22v-8.54c0-.674-.545-1.22-1.216-1.22-.672 0-1.216.546-1.216 1.22v8.54c0 .674.544 1.22 1.216 1.22M42.808 39.581c.672 0 1.216-.546 1.216-1.22V31.04c0-.673-.544-1.22-1.216-1.22-.671 0-1.216.547-1.216 1.22v7.323c0 .673.545 1.22 1.216 1.22M42.808 16.283c.672 0 1.216-.547 1.216-1.22V8.96c0-.673-.544-1.22-1.216-1.22-.671 0-1.216.547-1.216 1.22v6.102c0 .673.545 1.22 1.216 1.22M47.673 12.623c.672 0 1.216-.546 1.216-1.22v-9.76c0-.675-.544-1.221-1.216-1.221-.671 0-1.216.546-1.216 1.22v9.761c0 .674.545 1.22 1.216 1.22M13.617 30.204V15.563c0-.674-.544-1.22-1.216-1.22-.672 0-1.216.546-1.216 1.22v14.641a1.217 1.217 0 1 0 2.432 0M36.386 116.687c0 .863.697 1.562 1.557 1.562 5.057 0 10.18-.765 14.012-2.15v-2.536c0-.307.083-.608.236-.9-2.868 1.263-7.775 2.462-14.248 2.462-.86 0-1.557.699-1.557 1.562M37.943 80.767c-.86 0-1.557-.7-1.557-1.562a1.56 1.56 0 0 1 1.557-1.561c10.655 0 17.125-3.254 17.125-4.685a1.56 1.56 0 0 1 1.557-1.562c.86 0 1.557.7 1.557 1.562 0 4.888-10.29 7.808-20.239 7.808M27.045 123.181v2.877c0 .112-.024.224-.046.335 3.306.797 7.148 1.226 10.944 1.226 5.048 0 10.177-.755 14.012-2.133v-3.35c-2.903 1.225-7.72 2.36-14.012 2.36-4.408 0-8.085-.56-10.898-1.315"/>
        <path d="M58.182 72.956c-.008-4.886-10.296-7.806-20.239-7.806-9.949 0-20.239 2.92-20.239 7.809v9.37c0 .528.13 1.048.386 1.559a3.473 3.473 0 0 0-.386 1.564V91.7c0 .052.017.104.018.156 1.265.124 2.451.319 3.526.575-.04-.064-.065-.137-.117-.197-.246-.28-.313-.466-.313-.534v-6.247c0-.047.058-.235.319-.534a1.563 1.563 0 0 0 0-2.06c-.31-.357-.319-.527-.319-.529v-9.37c0-1.432 6.47-4.685 17.125-4.685 10.651 0 17.124 3.255 17.125 4.685v9.37c0 .047-.057.234-.319.533a1.565 1.565 0 0 0 0 2.06c.262.299.32.485.32.53V91.7c0 .048-.058.235-.32.534a1.564 1.564 0 0 0 0 2.059c.262.299.32.485.32.53v6.248c0 .047-.058.235-.32.534a1.564 1.564 0 0 0 0 2.059c.262.299.32.484.32.53v6.247c0 .006-.012.03-.014.036.894-.38 1.947-.708 3.127-.966v-5.316c0-.529-.13-1.05-.386-1.56.257-.512.386-1.033.386-1.564v-6.247c0-.528-.13-1.05-.386-1.56.257-.511.386-1.033.386-1.564v-6.247a3.44 3.44 0 0 0-.386-1.56 3.45 3.45 0 0 0 .386-1.563v-9.373z"/>
        <path d="M64.41 133.866c-6.964 0-14.012-2.146-14.012-6.247v-14.055c0-4.101 7.048-6.247 14.012-6.247 6.958 0 14.007 2.144 14.011 6.244v14.058c0 4.1-7.048 6.247-14.011 6.247m0-23.426c-7.08 0-10.898 2.218-10.898 3.124v14.055c0 .906 3.819 3.123 10.898 3.123s10.897-2.217 10.897-3.123v-14.055c-.001-.906-3.82-3.124-10.897-3.124"/>
        <path d="M64.41 119.81c-.86 0-1.557-.698-1.557-1.561s.696-1.562 1.557-1.562c7.079 0 10.897-2.218 10.897-3.123 0-.863.697-1.562 1.557-1.562s1.557.699 1.557 1.562c0 4.1-7.048 6.246-14.011 6.246M64.41 127.62c-.86 0-1.557-.7-1.557-1.563s.696-1.562 1.557-1.562c7.079 0 10.897-2.217 10.897-3.123 0-.863.697-1.562 1.557-1.562s1.557.7 1.557 1.562c0 4.1-7.048 6.247-14.011 6.247M14.59 132.304c-6.963 0-14.011-2.146-14.011-6.247V96.384c0-4.1 7.048-6.247 14.011-6.247 6.96 0 14.008 2.145 14.012 6.244v29.676c0 4.101-7.048 6.247-14.012 6.247m0-39.043c-7.079 0-10.897 2.218-10.897 3.123v29.673c0 .906 3.818 3.123 10.897 3.123 7.08 0 10.898-2.217 10.898-3.123V96.384c0-.905-3.822-3.123-10.898-3.123"/>
        <path d="M14.59 102.631c-.86 0-1.557-.698-1.557-1.561 0-.864.697-1.562 1.557-1.562 7.08 0 10.898-2.218 10.898-3.123 0-.863.697-1.562 1.557-1.562s1.557.699 1.557 1.562c0 4.1-7.048 6.246-14.012 6.246M14.59 126.057c-.86 0-1.557-.698-1.557-1.561 0-.864.697-1.562 1.557-1.562 7.08 0 10.898-2.218 10.898-3.123 0-.864.697-1.562 1.557-1.562s1.557.698 1.557 1.562c0 4.1-7.048 6.246-14.012 6.246M14.59 118.249c-.86 0-1.557-.7-1.557-1.562 0-.863.697-1.562 1.557-1.562 7.08 0 10.898-2.218 10.898-3.123 0-.863.697-1.562 1.557-1.562s1.557.699 1.557 1.562c0 4.1-7.048 6.247-14.012 6.247M14.59 110.44c-.86 0-1.557-.699-1.557-1.562 0-.863.697-1.562 1.557-1.562 7.08 0 10.898-2.217 10.898-3.123 0-.863.697-1.562 1.557-1.562s1.557.7 1.557 1.562c0 4.101-7.048 6.247-14.012 6.247M37.943 108.878c-.86 0-1.557-.698-1.557-1.562 0-.863.697-1.561 1.557-1.561 10.655 0 17.125-3.255 17.125-4.685 0-.863.697-1.562 1.557-1.562s1.557.699 1.557 1.562c0 4.888-10.29 7.808-20.239 7.808M37.943 99.508c-.86 0-1.557-.699-1.557-1.562 0-.863.697-1.562 1.557-1.562 10.655 0 17.125-3.254 17.125-4.685 0-.863.697-1.562 1.557-1.562s1.557.7 1.557 1.562c0 4.888-10.29 7.809-20.239 7.809M37.943 90.138c-.86 0-1.557-.7-1.557-1.562 0-.863.697-1.562 1.557-1.562 10.655 0 17.125-3.254 17.125-4.685a1.56 1.56 0 0 1 1.557-1.562c.86 0 1.557.7 1.557 1.562 0 4.888-10.29 7.809-20.239 7.809"/>
    </g>
</svg>
