<svg xmlns="http://www.w3.org/2000/svg" width="160" height="118" viewBox="0 0 160 118">
    <g fill="none" fill-rule="evenodd">
        <circle cx="58.259" cy="58.259" r="58.259" fill="#FFF"/>
        <g fill-rule="nonzero">
            <path fill="#58595B" stroke="#FAFAFA" stroke-width="2" d="M149.305 82.107a6.022 6.022 0 0 0-4.92-1.328l-36.639 6.372L97.34 76.744a1.84 1.84 0 0 0-1.306-.541H48v3.695h20.322v22.169H48v3.695H82.665l19.751 9.876a6.028 6.028 0 0 0 5.742-.183l40.304-23.512a6.054 6.054 0 0 0 2.995-5.213 6.03 6.03 0 0 0-2.152-4.623zm-73.593 19.96h-3.695v-22.17h3.695v22.17zM146.6 88.751l-40.302 23.512a2.337 2.337 0 0 1-2.228.07l-20.14-10.07a1.843 1.843 0 0 0-.829-.196h-3.694v-22.17h15.862l14.556 14.557a3.4 3.4 0 0 1 .988 2.388 3.38 3.38 0 0 1-3.377 3.378c-.889 0-1.76-.36-2.389-.989l-9.555-9.555-2.612 2.613 9.555 9.554a7.025 7.025 0 0 0 5 2.071c3.899 0 7.073-3.173 7.073-7.072a7.028 7.028 0 0 0-2.071-5l-1.496-1.497 34.074-5.927a2.315 2.315 0 0 1 1.91.516c.532.447.837 1.1.837 1.794a2.35 2.35 0 0 1-1.162 2.023z"/>
            <path fill="#58595B" stroke="#FAFAFA" d="M118.203 6C103.94 6 92.339 17.602 92.339 31.864V55.881h.094c.953 13.4 12.132 24.017 25.77 24.017s24.817-10.618 25.77-24.017h.094V31.864C144.067 17.602 132.465 6 118.203 6zm0 3.695c9.316 0 17.294 5.784 20.57 13.943-4.728-6.213-12.177-10.248-20.57-10.248s-15.842 4.035-20.57 10.248c3.276-8.159 11.253-13.943 20.57-13.943zm0 7.39c9.316 0 17.294 5.784 20.57 13.942-4.728-6.213-12.177-10.247-20.57-10.247s-15.842 4.034-20.57 10.247c3.276-8.158 11.253-13.942 20.57-13.942zm20.57 21.332c-4.728-6.213-12.177-10.248-20.57-10.248s-15.842 4.035-20.57 10.248c3.276-8.158 11.253-13.943 20.57-13.943 9.316 0 17.294 5.785 20.57 13.943zm-20.57 37.786c-12.225 0-22.17-9.945-22.17-22.17 0-12.224 9.945-22.169 22.17-22.169 12.224 0 22.17 9.945 22.17 22.17 0 12.224-9.946 22.169-22.17 22.169z"/>
            <path fill="#58595B" stroke="#FAFAFA" stroke-width="2" d="M118.203 35.56c-10.187 0-18.475 8.287-18.475 18.474 0 10.186 8.288 18.474 18.475 18.474 10.187 0 18.474-8.288 18.474-18.474 0-10.187-8.287-18.475-18.474-18.475zm0 33.253c-8.15 0-14.78-6.63-14.78-14.78 0-8.149 6.63-14.779 14.78-14.779 8.149 0 14.78 6.63 14.78 14.78 0 8.149-6.631 14.78-14.78 14.78z"/>
            <path fill="#58595B" d="M118.203 52.186a1.848 1.848 0 1 1 1.847-1.847h3.695c0-2.406-1.55-4.438-3.695-5.203V42.95h-3.695v2.187c-2.145.765-3.695 2.797-3.695 5.203a5.55 5.55 0 0 0 5.543 5.542 1.848 1.848 0 1 1-1.848 1.847h-3.695c0 2.406 1.55 4.438 3.695 5.203v2.187h3.695v-2.187c2.145-.765 3.695-2.797 3.695-5.203a5.55 5.55 0 0 0-5.542-5.542z"/>
            <path fill="#F83C3D" stroke="#FAFAFA" stroke-width="2" d="M83.101 57.728h-3.694a5.55 5.55 0 0 1-5.543 5.543v3.695a5.55 5.55 0 0 1 5.543 5.542H83.1a5.55 5.55 0 0 1 5.543-5.542V63.27a5.55 5.55 0 0 1-5.543-5.543zm-1.847 9.295a9.215 9.215 0 0 0-1.905-1.905 9.215 9.215 0 0 0 1.905-1.905 9.215 9.215 0 0 0 1.905 1.905 9.215 9.215 0 0 0-1.905 1.905zM153.304 6h-3.695a5.55 5.55 0 0 1-5.542 5.542v3.695a5.55 5.55 0 0 1 5.542 5.543h3.695a5.55 5.55 0 0 1 5.543-5.543v-3.695A5.55 5.55 0 0 1 153.304 6zm-1.847 9.294a9.215 9.215 0 0 0-1.905-1.904 9.215 9.215 0 0 0 1.905-1.905 9.215 9.215 0 0 0 1.905 1.905 9.215 9.215 0 0 0-1.905 1.904zM142.22 102.067h-3.695a5.55 5.55 0 0 1-5.543 5.542v3.695a5.55 5.55 0 0 1 5.543 5.543h3.695a5.55 5.55 0 0 1 5.542-5.543v-3.695a5.55 5.55 0 0 1-5.542-5.542zm-1.848 9.295a9.215 9.215 0 0 0-1.905-1.905 9.215 9.215 0 0 0 1.905-1.905 9.215 9.215 0 0 0 1.905 1.905 9.215 9.215 0 0 0-1.905 1.905zM57.237 37.407h-3.695A5.55 5.55 0 0 1 48 42.949v3.695a5.55 5.55 0 0 1 5.542 5.542h3.695a5.55 5.55 0 0 1 5.543-5.542v-3.695a5.55 5.55 0 0 1-5.543-5.542zM55.39 46.7a9.215 9.215 0 0 0-1.905-1.905 9.215 9.215 0 0 0 1.905-1.904 9.215 9.215 0 0 0 1.904 1.904 9.215 9.215 0 0 0-1.904 1.905zM81.254 6h-3.695a5.55 5.55 0 0 1-5.542 5.542v3.695a5.55 5.55 0 0 1 5.542 5.543h3.695a5.55 5.55 0 0 1 5.542-5.543v-3.695A5.55 5.55 0 0 1 81.254 6zm-1.847 9.294a9.215 9.215 0 0 0-1.905-1.904 9.215 9.215 0 0 0 1.905-1.905 9.215 9.215 0 0 0 1.904 1.905 9.215 9.215 0 0 0-1.904 1.904z"/>
            <path fill="#F83C3D" d="M81.254 35.56v-3.696h-3.695v3.695h-3.695v3.695h3.695v3.695h3.695v-3.695h3.695v-3.695zM155.152 66.966V63.27h-3.695v3.695h-3.695v3.694h3.695v3.695h3.695V70.66h3.695v-3.694z"/>
        </g>
    </g>
</svg>
