<svg xmlns="http://www.w3.org/2000/svg" width="166" height="150" viewBox="0 0 166 150">
    <g fill="none" fill-rule="evenodd" transform="translate(1)">
        <circle cx="106.31" cy="58.31" r="58.31" fill="#FFF"/>
        <g fill-rule="nonzero">
            <path fill="#58595B" stroke="#FAFAFA" stroke-width="2" d="M121.105 100.882v-4.565H96a2.283 2.283 0 0 0-2.282 2.283h-9.13V80.34a2.283 2.283 0 0 0-2.282-2.282c-7.552 0-13.694 6.142-13.694 13.694V98.6h-4.564V79.7a38.738 38.738 0 0 0 20.611-10.773c16.328-.039 29.6-13.331 29.6-29.668v-9.13a2.283 2.283 0 0 0-2.282-2.282H95.999v-4.565A2.283 2.283 0 0 0 93.717 21H20.682a2.283 2.283 0 0 0-2.282 2.282v4.565H2.424A2.283 2.283 0 0 0 .14 30.129v9.13c0 16.337 13.272 29.629 29.6 29.666a38.714 38.714 0 0 0 20.612 10.772V98.6H48.07a6.855 6.855 0 0 0-6.847 6.847c0 1.76.687 3.35 1.78 4.564-1.095 1.214-1.78 2.805-1.78 4.565 0 1.76.687 3.35 1.78 4.565-1.095 1.214-1.78 2.805-1.78 4.564 0 1.76.687 3.35 1.78 4.565-1.095 1.214-1.78 2.805-1.78 4.565 0 .871.18 1.698.477 2.465-5.432.871-9.606 5.555-9.606 11.229a2.283 2.283 0 0 0 2.282 2.282h45.647a2.283 2.283 0 0 0 2.282-2.282c0-2.58-.892-4.935-2.341-6.847h13.753a2.283 2.283 0 0 0 2.282 2.282h25.106v-4.565h-13.694v-36.517h13.694zm-75.317 31.953a2.286 2.286 0 0 1 2.282-2.283H66.33a2.286 2.286 0 0 1 2.282 2.283 2.286 2.286 0 0 1-2.282 2.282H48.07a2.286 2.286 0 0 1-2.282-2.282zm0-9.13a2.286 2.286 0 0 1 2.282-2.282H66.33a2.286 2.286 0 0 1 2.282 2.282 2.286 2.286 0 0 1-2.282 2.283H48.07a2.286 2.286 0 0 1-2.282-2.283zm0-9.13a2.286 2.286 0 0 1 2.282-2.281H66.33a2.286 2.286 0 0 1 2.282 2.282 2.286 2.286 0 0 1-2.282 2.282H48.07a2.286 2.286 0 0 1-2.282-2.282zm63.905-82.163v6.847c0 12.406-9.056 22.714-20.901 24.724 4.521-6.342 7.207-14.077 7.207-22.442v-9.13h13.694zM4.706 39.259v-6.847H18.4v9.129c0 8.365 2.686 16.1 7.208 22.442C13.762 61.973 4.706 51.665 4.706 39.26zm18.259 2.282V25.565h68.47V41.54c0 18.877-15.358 34.235-34.235 34.235-18.878 0-34.235-15.358-34.235-34.235zm31.952 38.683c.76.046 1.511.117 2.283.117.771 0 1.522-.071 2.282-.117V98.6h-4.565V80.224zm-6.847 22.94H66.33a2.286 2.286 0 0 1 2.282 2.283 2.286 2.286 0 0 1-2.282 2.282H48.07a2.286 2.286 0 0 1-2.282-2.282 2.286 2.286 0 0 1 2.282-2.283zm29.28 41.082H37.05c.942-2.656 3.48-4.564 6.457-4.564h27.388c2.976 0 5.514 1.908 6.456 4.564zm-4.594-9.13a6.77 6.77 0 0 0 .42-2.281c0-1.76-.687-3.35-1.78-4.565 1.095-1.214 1.78-2.805 1.78-4.565 0-1.76-.687-3.35-1.78-4.564 1.095-1.215 1.78-2.805 1.78-4.565 0-1.76-.687-3.35-1.78-4.565 1.095-1.214 1.78-2.805 1.78-4.564 0-1.055-.26-2.045-.69-2.938.425-.415.69-.988.69-1.627v-9.13c0-4.245 2.915-7.823 6.847-8.841v17.97a2.283 2.283 0 0 0 2.282 2.283h11.412v31.953H72.756zm25.526-34.234h4.564v36.517h-4.564v-36.517z"/>
            <path fill="#F83C3D" d="M73.176 55.235c0-8.81-7.167-15.976-15.976-15.976-8.81 0-15.977 7.166-15.977 15.976S48.39 71.211 57.2 71.211s15.976-7.166 15.976-15.976zm-27.388 0c0-6.292 5.12-11.412 11.412-11.412 6.292 0 11.411 5.12 11.411 11.412 0 6.292-5.119 11.412-11.411 11.412-6.293 0-11.412-5.12-11.412-11.412zM45.788 30.129h4.565v4.565h-4.565zM54.917 30.129h4.565v4.565h-4.565zM64.047 30.129h4.565v4.565h-4.565z"/>
        </g>
    </g>
</svg>
