<svg xmlns="http://www.w3.org/2000/svg" width="85" height="85" viewBox="0 0 85 85">
    <defs>
        <linearGradient id="a" x1="55.953%" y1="0%" y2="100%">
            <stop offset="0%" stop-color="#F15A23"/>
            <stop offset="100%" stop-color="#F83C3D"/>
        </linearGradient>
    </defs>
    <g fill="url(#a)" fill-rule="nonzero" transform="translate(-951 -296)">
        <path d="M993.284 296C969.969 296 951 314.968 951 338.284s18.97 42.284 42.284 42.284c23.315 0 42.284-18.968 42.284-42.284S1016.598 296 993.284 296zm0 81.315c-21.52 0-39.031-17.51-39.031-39.031 0-21.52 17.51-39.031 39.031-39.031 21.52 0 39.031 17.51 39.031 39.031 0 21.52-17.51 39.031-39.031 39.031z"/>
        <path d="M1013.21 320.941l-24.995 28.119-15.058-12.046a1.627 1.627 0 0 0-2.031 2.54l16.263 13.01a1.624 1.624 0 0 0 2.233-.19l26.02-29.273a1.625 1.625 0 1 0-2.433-2.16z"/>
    </g>
</svg>
