<?xml version="1.0" encoding="UTF-8" standalone="no"?>
<svg width="65px" height="60px" viewBox="0 0 65 60" version="1.1" xmlns="http://www.w3.org/2000/svg" xmlns:xlink="http://www.w3.org/1999/xlink">
    <!-- Generator: Sketch 45.2 (43514) - http://www.bohemiancoding.com/sketch -->
    <title>upload</title>
    <desc>Created with Sketch.</desc>
    <defs></defs>
    <g id="v2" stroke="none" stroke-width="1" fill="none" fill-rule="evenodd">
        <g id="BrFinancial---form" transform="translate(-1154.000000, -1387.000000)" fill-rule="nonzero" fill="#E8E6E6">
            <g id="Group-2" transform="translate(986.000000, 1330.000000)">
                <g id="upload" transform="translate(168.000000, 57.000000)">
                    <path d="M52.2114898,15.5512351 C51.5250176,11.4720062 49.5052053,7.7492148 46.4160804,4.92411775 C42.9837196,1.78218739 38.5216504,0.0528055523 33.8747618,0.0528055523 C30.2839842,0.0528055523 26.7856164,1.08251382 23.7889013,3.02311787 C21.293839,4.63368721 19.221221,6.81191624 17.755867,9.37298553 C17.1222003,9.25417304 16.4621309,9.1881661 15.8020615,9.1881661 C10.1914716,9.1881661 5.62379132,13.7558464 5.62379132,19.3664363 C5.62379132,20.0925126 5.70299965,20.7921862 5.83501353,21.4786584 C2.20463181,24.118936 0,28.369783 0,32.8978591 C0,36.5546436 1.35974297,40.105817 3.84160393,42.9177126 C6.38947183,45.7956152 9.75582578,47.4985943 13.3466033,47.6966151 C13.3862075,47.6966151 13.4126103,47.6966151 13.4522144,47.6966151 L24.8054082,47.6966151 C25.7955123,47.6966151 26.5875956,46.9045318 26.5875956,45.9144277 C26.5875956,44.9243236 25.7955123,44.1322403 24.8054082,44.1322403 L13.50502,44.1322403 C8.10565227,43.8022056 3.56437478,38.6668657 3.56437478,32.8846577 C3.56437478,29.1486649 5.57098576,25.6634984 8.80532584,23.7756999 C9.55780496,23.3400541 9.87463828,22.4291583 9.58420774,21.6106723 C9.32017998,20.8977973 9.1881661,20.1453182 9.1881661,19.3400335 C9.1881661,15.6964504 12.1584784,12.7261381 15.8020615,12.7261381 C16.5809434,12.7261381 17.3466239,12.858152 18.0594989,13.1221797 C18.9307905,13.4390131 19.8944918,13.0429714 20.2905335,12.211284 C22.759193,6.9703329 28.0925538,3.59077755 33.8879632,3.59077755 C41.6767821,3.59077755 48.1058581,9.42579108 48.8451359,17.1618045 C48.9243442,17.9670892 49.531608,18.6139572 50.3236913,18.7459711 C56.198309,19.7492766 60.6339754,25.175047 60.6339754,31.3664981 C60.6339754,37.9275879 55.4722327,43.6305876 49.1091636,44.1190389 L39.3797406,44.1190389 C38.3896365,44.1190389 37.5975532,44.9111222 37.5975532,45.9012263 C37.5975532,46.8913304 38.3896365,47.6834137 39.3797406,47.6834137 L49.1751706,47.6834137 C49.2147747,47.6834137 49.2543789,47.6834137 49.3071844,47.6834137 C53.3336078,47.3929832 57.0960034,45.5447888 59.8946977,42.455664 C62.6801905,39.392942 64.1983502,35.4589284 64.1983502,31.3664981 C64.1851488,23.9605193 59.1290172,17.3730267 52.2114898,15.5512351 Z" id="Shape"></path>
                    <path d="M42.7989001,34.5876367 C43.4985737,33.8879632 43.4985737,32.7658452 42.7989001,32.0661716 L33.3599076,22.6271791 C33.0298729,22.2971444 32.5678244,22.0991236 32.1057758,22.0991236 C31.6437272,22.0991236 31.1816786,22.2839431 30.8516439,22.6271791 L21.4126514,32.0661716 C20.7129779,32.7658452 20.7129779,33.8879632 21.4126514,34.5876367 C21.7558875,34.9308728 22.2179361,35.1156923 22.6667833,35.1156923 C23.1156305,35.1156923 23.5776791,34.9440742 23.9209152,34.5876367 L30.3235884,28.1849635 L30.3235884,57.6108575 C30.3235884,58.6009616 31.1156717,59.3930449 32.1057758,59.3930449 C33.0958799,59.3930449 33.8879632,58.6009616 33.8879632,57.6108575 L33.8879632,28.1849635 L40.2906364,34.5876367 C40.9771086,35.2873103 42.0992265,35.2873103 42.7989001,34.5876367 Z" id="Shape"></path>
                </g>
            </g>
        </g>
    </g>
</svg>